<?xml version="1.0" standalone="no"?>
<!DOCTYPE svg PUBLIC "-//W3C//DTD SVG 1.1//EN" "http://www.w3.org/Graphics/SVG/1.1/DTD/svg11.dtd" >
<svg xmlns="http://www.w3.org/2000/svg" xmlns:xlink="http://www.w3.org/1999/xlink" version="1.1">
<metadata></metadata>
<defs>
<font id="futurabookcregular" horiz-adv-x="1163" >
<font-face units-per-em="2048" ascent="1536" descent="-512" />
<missing-glyph horiz-adv-x="477" />
<glyph unicode=" "  horiz-adv-x="477" />
<glyph unicode="&#x09;" horiz-adv-x="477" />
<glyph unicode="&#xa0;" horiz-adv-x="477" />
<glyph unicode="!" horiz-adv-x="573" d="M184 82q0 41 31 71.5t72 30.5t71.5 -30.5t30.5 -71.5t-30.5 -71.5t-71.5 -30.5t-72 30.5t-31 71.5zM213 276v1090h147v-1090h-147z" />
<glyph unicode="&#x22;" horiz-adv-x="675" d="M111 1366h163l-26 -549h-111zM401 1366h164l-26 -549h-111z" />
<glyph unicode="#" horiz-adv-x="1228" d="M70 424l20 135h225l41 272h-225l21 136h225l61 399h150l-62 -399h279l61 399h150l-62 -399h226l-21 -136h-225l-41 -272h225l-20 -135h-226l-65 -424h-150l66 424h-279l-65 -424h-150l66 424h-225zM465 559h278l41 272h-278z" />
<glyph unicode="$" d="M158 328l147 41q8 -53 29.5 -98.5t52.5 -75.5q41 -43 83 -58.5t77 -17.5v561q-41 16 -106.5 50t-118.5 83q-53 51 -74 104.5t-21 118.5q0 74 26 134.5t69 106.5t101 73.5t124 33.5v179h123v-179q29 -4 68.5 -14t86.5 -43q41 -29 75 -67.5t56 -83.5l-120 -80 q-14 29 -35 56.5t-43 45.5q-27 23 -49.5 31t-38.5 12v-455q76 -29 136 -63.5t103 -79.5q96 -98 97 -248q0 -70 -21.5 -137.5t-64.5 -124.5t-105.5 -97t-144.5 -52v-191h-123v182q-86 4 -151.5 36t-110.5 75q-47 47 -80 112.5t-47 129.5zM379 1038q0 -35 11 -64.5t40 -58.5 q23 -23 54.5 -42t62.5 -31v399q-84 -14 -126 -72.5t-42 -130.5zM670 127q43 12 76.5 39t56 62.5t35 77.5t12.5 83q0 59 -21.5 99t-44.5 63t-57.5 42t-56.5 30v-496z" />
<glyph unicode="%" horiz-adv-x="1454" d="M68 1081q0 61 23.5 115.5t63.5 94.5t94.5 63.5t115.5 23.5t115.5 -23.5t94 -63.5t63.5 -94t24 -116q0 -61 -24 -115.5t-63.5 -94.5t-94 -63.5t-115.5 -23.5t-115.5 23.5t-94.5 63.5t-63.5 94.5t-23.5 115.5zM190 1081q0 -78 51.5 -131t123.5 -53q76 0 125 54.5t49 129.5 q0 76 -49.5 130.5t-124.5 54.5q-72 0 -123.5 -53.5t-51.5 -131.5zM289 20l796 1373l80 -45l-796 -1375zM793 283q0 61 23.5 115.5t63.5 94t94.5 63.5t115.5 24t115.5 -24t94 -63.5t63 -94t23.5 -115.5t-23.5 -115.5t-63 -94.5t-94 -63.5t-115.5 -23.5t-115.5 23.5 t-94.5 63.5t-63.5 94t-23.5 116zM915 283q0 -78 51.5 -131.5t123.5 -53.5q76 0 125 54.5t49 130.5t-49.5 130t-124.5 54q-72 0 -123.5 -53.5t-51.5 -130.5z" />
<glyph unicode="&#x26;" horiz-adv-x="1302" d="M111 354q0 55 13 100.5t31.5 80t40 60.5t37.5 42q27 27 62 54.5t68.5 51t61.5 41t38 23.5q-70 90 -102.5 156.5t-32.5 136.5q0 53 18.5 105t56 93t93 66t129.5 25q72 0 126 -24t90 -62.5t54 -88t18 -100.5q0 -47 -22.5 -111.5t-104.5 -136.5q-12 -12 -19 -16t-16.5 -11.5 t-25.5 -19.5t-49 -41l285 -366q55 59 90.5 99t64.5 81l111 -92q-29 -39 -70 -88.5t-104 -114.5l229 -297h-188l-148 190q-90 -90 -206.5 -152.5t-233.5 -62.5q-84 0 -155.5 29t-125 80t-84 119.5t-30.5 150.5zM262 356q0 -51 17.5 -95t50 -76.5t77 -51t97.5 -18.5 q55 0 109.5 22.5t101.5 53t84 62.5t55 50l-303 391q-76 -47 -120 -80.5t-73 -60.5t-62.5 -72t-33.5 -125zM471 1108q0 -45 17.5 -76t37.5 -59l62 -84l90 69q59 47 75.5 85t16.5 73q0 72 -47 106.5t-100 34.5q-63 0 -107.5 -41.5t-44.5 -107.5z" />
<glyph unicode="'" horiz-adv-x="385" d="M111 1366h163l-26 -549h-111z" />
<glyph unicode="(" horiz-adv-x="602" d="M164 567q0 123 9 226.5t22.5 185.5t27 137t19.5 80q10 33 22 74t25.5 82t27 81t25.5 70l129 -59q-43 -115 -66.5 -199t-27.5 -106q-16 -70 -39 -215.5t-23 -356.5t22.5 -356t39.5 -215q4 -23 27.5 -107t66.5 -198l-129 -60q-12 31 -25.5 71t-27 81t-25.5 82t-22 74 q-6 25 -19.5 80t-27 137t-22.5 185t-9 226z" />
<glyph unicode=")" horiz-adv-x="602" d="M131 -309q43 115 66.5 198.5t27.5 106.5q16 70 39 215t23 356t-22.5 356.5t-39.5 215.5q-4 23 -27.5 106.5t-66.5 198.5l129 59q12 -31 25.5 -70.5t27 -80.5t26.5 -82t21 -74q6 -25 19.5 -80t27 -137t22.5 -185.5t9 -226.5t-9 -226t-22.5 -185t-26.5 -137.5t-20 -79.5 q-8 -33 -21 -74t-26.5 -82t-27 -81t-25.5 -71z" />
<glyph unicode="*" d="M242 1198l43 129l237 -88l-10 254h139l-10 -254l238 88l43 -129l-246 -70l158 -198l-111 -80l-141 211l-142 -211l-110 80l157 198z" />
<glyph unicode="+" horiz-adv-x="1024" d="M68 614v136h370v352h148v-352h370v-136h-370v-352h-148v352h-370z" />
<glyph unicode="," horiz-adv-x="561" d="M49 -272l168 473l135 -49l-207 -463z" />
<glyph unicode="-" horiz-adv-x="614" d="M82 360v152h450v-152h-450z" />
<glyph unicode="." horiz-adv-x="466" d="M131 82q0 41 31 71.5t71 30.5q41 0 72 -30.5t31 -71.5t-31 -71.5t-72 -30.5t-71.5 30.5t-30.5 71.5z" />
<glyph unicode="/" horiz-adv-x="1187" d="M0 -311l1028 1847l119 -61l-1028 -1844z" />
<glyph unicode="0" d="M94 682q0 147 35 275t102 227q78 115 173.5 160t177.5 45t177 -45.5t173 -159.5q68 -98 102.5 -226.5t34.5 -275.5t-35 -275t-102 -227q-78 -115 -173 -160t-177 -45t-177.5 45.5t-173.5 159.5q-68 98 -102.5 226.5t-34.5 275.5zM246 682q0 -109 22.5 -218.5t77.5 -197.5 q53 -86 117.5 -118.5t118.5 -32.5q53 0 117.5 32.5t117.5 118.5q55 88 78 197.5t23 218.5t-23 218.5t-78 197.5q-53 86 -117.5 118.5t-117.5 32.5t-118 -32.5t-118 -118.5q-55 -88 -77.5 -197.5t-22.5 -218.5z" />
<glyph unicode="1" d="M315 1223l80 143h301v-1366h-151v1223h-230z" />
<glyph unicode="2" d="M102 0l498 575q12 16 34.5 42t46.5 54.5t45.5 56.5t33.5 46q47 66 61.5 117t14.5 92q0 117 -75 191.5t-198 74.5q-147 0 -227 -121q-20 -31 -31.5 -69.5t-13.5 -91.5h-152q4 104 33 169.5t70 112.5q43 49 119.5 94.5t203.5 45.5q90 0 168 -31t134.5 -85t88 -129 t31.5 -163q0 -70 -23.5 -137.5t-84.5 -155.5q-43 -59 -94.5 -119.5t-92.5 -107.5l-284 -322h577v-139h-883z" />
<glyph unicode="3" d="M131 354h152q4 -37 16 -72.5t33 -64.5q35 -49 90 -75.5t121 -26.5q57 0 106 21.5t85 59t56.5 88t20.5 107.5q0 29 -6 61.5t-21.5 64.5t-42 58.5t-65.5 45.5q-33 16 -74 23t-82 5v135q41 -4 82 4.5t74 24.5q16 8 35.5 23.5t37 40t30 59.5t12.5 80t-13.5 87t-41 74.5 t-71.5 52t-108 19.5q-41 0 -88 -13t-88 -65q-20 -27 -34.5 -63.5t-18.5 -79.5h-152q4 57 20.5 108.5t43.5 92.5q35 53 76.5 85t84.5 48t84 21.5t72 5.5q96 0 169 -31t121 -83t71.5 -117.5t23.5 -137.5q0 -37 -8 -79t-27.5 -83t-53.5 -78t-87 -63q18 -6 51 -25.5t64.5 -57.5 t56.5 -98.5t25 -148.5q0 -96 -33 -172t-89.5 -129t-133 -82t-164.5 -29q-53 0 -108.5 12.5t-107 40t-94.5 72.5t-71 111q-16 37 -22.5 71.5t-8.5 71.5z" />
<glyph unicode="4" d="M41 223l852 1219v-1080h168v-139h-168v-223h-152v223h-700zM309 362h432v617z" />
<glyph unicode="5" d="M70 221l120 86q16 -35 39 -60.5t54 -49.5q43 -35 96 -58.5t125 -23.5t133 27.5t106 75.5t71 111.5t26 135.5q0 74 -26 135.5t-70 106.5t-105 69.5t-135 24.5q-37 0 -104.5 -14.5t-159.5 -79.5l198 659h543v-139h-438l-88 -295q35 8 86 8q102 0 186 -37t142.5 -100.5 t90 -149.5t31.5 -186q0 -115 -40 -206t-108.5 -154.5t-158.5 -97.5t-190 -34q-84 0 -160 25t-146 82q-33 29 -63.5 63.5t-54.5 75.5z" />
<glyph unicode="6" d="M111 440q0 39 18 123t94 191l465 645l115 -86l-314 -436q59 18 121 18q98 0 180 -35t140.5 -95t90.5 -142t32 -179q0 -102 -35 -188t-97.5 -148.5t-148.5 -97.5t-188 -35q-121 0 -210 42t-147.5 110t-87 150.5t-28.5 162.5zM262 440q0 -68 23.5 -127t65.5 -103 t100.5 -69.5t130.5 -25.5t130 24.5t100 68.5t65.5 103.5t23.5 128.5q0 68 -23.5 126.5t-66.5 100.5t-102.5 65.5t-128.5 23.5q-70 0 -128.5 -24.5t-100.5 -66.5t-65.5 -99.5t-23.5 -125.5z" />
<glyph unicode="7" d="M106 47l777 1180h-748v139h1004l-914 -1399z" />
<glyph unicode="8" d="M164 377q0 111 51 199t156 135q-82 47 -124 124.5t-42 174.5q0 74 24.5 141.5t71.5 120.5t117.5 85t163.5 32q92 0 162.5 -32t117.5 -85t71.5 -121t24.5 -141q0 -96 -41.5 -174t-123.5 -125q104 -47 155 -135.5t51 -198.5q0 -80 -25.5 -152.5t-77.5 -128t-131 -88.5 t-183 -33t-182 33t-130.5 88.5t-79 128t-26.5 152.5zM315 381q0 -117 74 -191.5t193 -74.5t192.5 74.5t73.5 191.5t-75 188.5t-191 71.5q-117 0 -192 -71.5t-75 -188.5zM348 1008q0 -102 67 -169t167 -67t166.5 66.5t66.5 169.5q0 55 -18.5 100t-51 77t-74.5 48t-89 16 t-89 -16t-75 -48t-51.5 -77t-18.5 -100z" />
<glyph unicode="9" d="M111 920q0 102 34.5 188t97 148.5t148.5 97.5t189 35q121 0 210 -42t147 -110t87 -150.5t29 -162.5q0 -18 -3 -50t-14.5 -73t-34 -89t-61.5 -102l-465 -643l-115 84l314 436q-57 -18 -121 -18q-98 0 -179 35t-139.5 95t-91 143t-32.5 178zM262 924q0 -68 23.5 -126.5 t66.5 -100.5t102.5 -65.5t129.5 -23.5t128 24.5t100 66.5t65.5 99.5t23.5 125.5t-23.5 127t-65.5 103t-100 69.5t-130 25.5q-70 0 -129.5 -24.5t-101.5 -68.5t-65.5 -103.5t-23.5 -128.5z" />
<glyph unicode=":" horiz-adv-x="466" d="M131 82q0 41 31 71.5t71 30.5q41 0 72 -30.5t31 -71.5t-31 -71.5t-72 -30.5t-71.5 30.5t-30.5 71.5zM131 768q0 41 31 71.5t71 30.5q41 0 72 -30.5t31 -71.5t-31 -71.5t-72 -30.5t-71.5 30.5t-30.5 71.5z" />
<glyph unicode=";" horiz-adv-x="561" d="M49 -272l168 473l135 -49l-207 -463zM160 768q0 41 30.5 71.5t71.5 30.5t72 -30.5t31 -71.5t-31 -71.5t-72 -30.5t-71.5 30.5t-30.5 71.5z" />
<glyph unicode="&#x3c;" horiz-adv-x="1024" d="M68 612v127l888 416v-147l-731 -332l731 -332v-147z" />
<glyph unicode="=" horiz-adv-x="1024" d="M68 471v135h888v-135h-888zM68 786v136h888v-136h-888z" />
<glyph unicode="&#x3e;" horiz-adv-x="1024" d="M68 197v147l731 332l-731 332v147l888 -416v-127z" />
<glyph unicode="?" horiz-adv-x="892" d="M117 1071q0 76 24.5 133.5t68.5 97t104.5 60t129.5 20.5q88 0 151.5 -28.5t103.5 -74.5t58.5 -104.5t18.5 -117.5q0 -29 -7 -71t-30.5 -86t-68.5 -84t-121 -66q-45 -16 -83 -26.5t-81 -33.5q-29 -14 -56.5 -44t-27.5 -89q0 -66 41 -105.5t102 -39.5q39 0 68 13t51 48 q16 27 22.5 56.5t6.5 56.5h147q2 -47 -10 -99.5t-37 -89.5q-37 -55 -102.5 -90t-143.5 -35q-66 0 -120 22.5t-93.5 62.5t-61 93.5t-21.5 116.5q0 59 16 101.5t41.5 71t55.5 46t56 29.5q27 12 46.5 18.5t38 12.5t39 12t51.5 19q23 10 46 22t41.5 32.5t31 50.5t12.5 73 q0 92 -47.5 140t-133.5 48q-6 0 -34.5 -3t-61.5 -21.5t-58.5 -56.5t-25.5 -107q0 -35 12 -78h-151q-8 43 -8 94zM344 82q0 41 31 71.5t71 30.5q41 0 72 -30.5t31 -71.5t-31 -71.5t-72 -30.5t-71.5 30.5t-30.5 71.5z" />
<glyph unicode="@" horiz-adv-x="1501" d="M68 678q0 147 55 276t150.5 224.5t225.5 150.5t279 55q131 0 248 -43t206 -122.5t141 -191.5t52 -249q0 -106 -29.5 -195t-76.5 -152.5t-106.5 -99.5t-120.5 -36q-63 0 -104.5 38t-45.5 99q-6 -10 -25.5 -34.5t-51 -49t-76 -43t-103.5 -18.5q-66 0 -119 25.5t-90 70.5 t-57.5 105.5t-20.5 127.5q0 82 26 158t74 133.5t113.5 91t145.5 33.5q94 0 148.5 -47t76.5 -111l27 132h106q-20 -90 -37.5 -175.5t-30 -155t-19.5 -116.5t-9 -63v-17q0 -10 3 -26.5t10 -31.5t22.5 -25.5t40.5 -10.5q37 0 76.5 26.5t74.5 78t57.5 123t22.5 163.5 q0 117 -43 211t-117.5 160.5t-174 102.5t-212.5 36q-127 0 -238.5 -47t-193.5 -130t-129 -194.5t-47 -238.5q0 -96 32 -202.5t105.5 -196t193.5 -147.5t296 -58q72 0 182.5 15t245.5 79l30 -94q-125 -59 -246.5 -79t-213.5 -20q-160 0 -293 51.5t-230.5 144.5t-151.5 223 t-54 286zM518 621q0 -111 59.5 -167.5t131.5 -56.5q55 0 98 28t73.5 73t47 104.5t16.5 120.5q0 53 -15.5 91t-40 61.5t-56 35t-64.5 11.5q-53 0 -99 -26t-80 -68t-52.5 -96t-18.5 -111z" />
<glyph unicode="A" horiz-adv-x="1273" d="M16 0l629 1432l612 -1432h-167l-160 385h-582l-164 -385h-168zM408 528h462l-229 547z" />
<glyph unicode="B" horiz-adv-x="1085" d="M176 0v1366h246q29 0 66.5 -2t80.5 -11.5t86 -25.5t80 -47q16 -12 38 -34.5t40 -56.5t31.5 -82t13.5 -110q0 -25 -4 -58.5t-18.5 -70.5t-41 -72.5t-71.5 -66.5q72 -18 121 -55t79.5 -85t45 -101.5t14.5 -102.5q0 -98 -42 -175t-97 -120q-82 -63 -169 -76.5t-159 -13.5 h-340zM328 143h174q66 0 128 9.5t111 48.5q41 29 65.5 78t24.5 110q0 82 -37.5 130t-78.5 71q-74 41 -232 41h-155v-488zM328 766h114q31 0 76 6t88 28.5t74 67.5t31 125q0 84 -35 131t-81 68.5t-89 26t-60 4.5h-118v-457z" />
<glyph unicode="C" horiz-adv-x="1323" d="M102 678q0 154 54.5 284t149.5 225t226.5 148.5t284.5 53.5q31 0 75 -3.5t96 -17.5t111.5 -41t121.5 -74v-188q-33 33 -79 67.5t-100 59.5q-53 25 -114.5 39t-120.5 14q-119 0 -219.5 -45t-174 -122t-114.5 -180t-41 -222q0 -139 51 -243.5t131 -174.5t177.5 -104.5 t191.5 -34.5q70 0 135.5 17.5t118.5 45.5q59 29 99 63t59 52v-188q-115 -82 -224.5 -108t-187.5 -26q-152 0 -282 54.5t-224 148.5t-147.5 223t-53.5 277z" />
<glyph unicode="D" horiz-adv-x="1294" d="M176 0v1366h279q51 0 112.5 -4t127 -20.5t133 -48t130.5 -87.5q94 -78 164 -209t70 -315q0 -106 -23.5 -190t-59.5 -147.5t-78 -110t-79 -76.5q-47 -39 -96 -69t-108.5 -50.5t-131 -29.5t-163.5 -9h-277zM328 143h133q41 0 88 4.5t98 16.5t103.5 36.5t101.5 65.5 q78 66 131 167.5t53 248.5q0 123 -41 223.5t-116.5 171t-182 108.5t-235.5 38h-133v-1080z" />
<glyph unicode="E" horiz-adv-x="987" d="M176 0v1366h709v-143h-557v-406h540v-143h-540v-531h557v-143h-709z" />
<glyph unicode="F" horiz-adv-x="888" d="M176 0v1366h623v-143h-471v-404h454v-143h-454v-676h-152z" />
<glyph unicode="G" horiz-adv-x="1552" d="M102 682q0 150 54.5 279t149.5 224t225.5 149.5t283.5 54.5q98 0 208 -29t210 -107q47 -35 88 -77.5t70 -83.5l-113 -103q-59 84 -129 141q-49 41 -129 78t-203 37t-226.5 -44t-177 -119.5t-114.5 -179t-41 -222.5q0 -139 50 -244.5t130 -176.5t179.5 -105.5t195.5 -34.5 q137 0 247.5 62.5t170.5 166.5q18 33 34.5 81t20.5 114h-405v143h569v-33q0 -115 -33 -229.5t-98 -202.5q-14 -20 -52 -61t-99.5 -82t-150.5 -72t-206 -31q-152 0 -282 54.5t-225 149.5t-148.5 224t-53.5 279z" />
<glyph unicode="H" horiz-adv-x="1355" d="M176 0v1366h152v-555h700v555h152v-1366h-152v668h-700v-668h-152z" />
<glyph unicode="I" horiz-adv-x="503" d="M176 0v1366h152v-1366h-152z" />
<glyph unicode="J" horiz-adv-x="626" d="M-94 -41l84 119q35 -33 71.5 -54.5t85.5 -21.5q45 0 72 17.5t39 33.5q27 33 34 85t7 124v1104h152v-1104q0 -53 -4.5 -104.5t-17.5 -96.5t-40 -83.5t-72 -69.5q-76 -49 -167 -49q-41 0 -104.5 17.5t-139.5 82.5z" />
<glyph unicode="K" d="M176 0v1366h152v-586l581 586h205l-639 -637l660 -729h-209l-559 627l-39 -39v-588h-152z" />
<glyph unicode="L" horiz-adv-x="733" d="M176 0v1366h152v-1223h377v-143h-529z" />
<glyph unicode="M" horiz-adv-x="1767" d="M129 0l227 1442l525 -1153l534 1155l213 -1444h-155l-130 950l-464 -1007l-459 1007l-135 -950h-156z" />
<glyph unicode="N" horiz-adv-x="1568" d="M176 0v1423l1065 -1116v1059h152v-1427l-1065 1116v-1055h-152z" />
<glyph unicode="O" horiz-adv-x="1626" d="M102 682q0 154 55.5 283t153 223t226.5 147.5t276 53.5t276.5 -53.5t226.5 -147.5t152.5 -223t55.5 -283q0 -152 -55.5 -282t-151.5 -224t-226.5 -147.5t-277.5 -53.5t-277 53.5t-226.5 147.5t-152 224t-55.5 282zM258 682q0 -117 44 -220.5t119 -179t176 -119.5t216 -44 t216 44t177 119.5t119 179t43 220.5t-43 220.5t-119 179t-177 119.5t-216 44t-216 -44t-176 -119.5t-119 -179t-44 -220.5z" />
<glyph unicode="P" horiz-adv-x="933" d="M176 0v1366h248q104 0 189 -18.5t155 -77.5q76 -66 100.5 -147t24.5 -146q0 -72 -23.5 -140.5t-76 -123t-134 -87t-198.5 -32.5h-133v-594h-152zM328 737h125q135 0 211.5 64.5t76.5 183.5q0 82 -32.5 129t-80.5 71.5t-99.5 31t-88.5 6.5h-112v-486z" />
<glyph unicode="Q" horiz-adv-x="1626" d="M102 682q0 154 55.5 283t153 223t226.5 147.5t276 53.5t276.5 -53.5t225.5 -147.5t152.5 -223t56.5 -283q0 -94 -18.5 -170t-47 -136.5t-62.5 -106.5t-65 -76l201 -207h-197l-110 114q-20 -14 -57.5 -35.5t-88.5 -41t-117.5 -34t-148.5 -14.5q-147 0 -276 53.5 t-226.5 147.5t-153 224t-55.5 282zM258 682q0 -117 44 -220.5t119 -179t176 -119.5t216 -44q66 0 144.5 18.5t158.5 71.5l-330 340h197l240 -246q18 20 43.5 54t48 81t38 107.5t15.5 136.5q0 117 -44 220.5t-119 179t-176 119.5t-216 44t-216 -44t-176 -119.5t-119 -179 t-44 -220.5z" />
<glyph unicode="R" horiz-adv-x="1028" d="M176 0v1366h219q35 0 77 -2t86 -9t87 -22.5t82 -42.5q59 -41 104.5 -116.5t45.5 -186.5q0 -78 -25 -144.5t-70 -116.5t-108.5 -80t-141.5 -36l435 -610h-185l-415 598h-39v-598h-152zM328 733h96q141 0 221 64.5t80 185.5q0 57 -21.5 110.5t-87.5 90.5q-47 27 -97 33 t-99 6h-92v-490z" />
<glyph unicode="S" horiz-adv-x="1060" d="M102 328l148 41q8 -53 30.5 -98.5t51.5 -75.5q45 -45 94 -60.5t102 -15.5q70 0 122 22.5t86 60.5t50.5 87t16.5 100q0 47 -15.5 86t-52.5 74q-29 29 -69.5 49t-94.5 45l-122 57q-41 18 -88.5 43t-94.5 70q-45 43 -69.5 94t-24.5 129q0 80 28.5 144.5t80 110.5t122 72 t152.5 26q63 0 115.5 -13.5t103.5 -48.5q41 -29 76 -67.5t57 -83.5l-121 -80q-14 29 -35.5 56.5t-43.5 45.5q-20 16 -57.5 31.5t-96.5 15.5q-102 0 -165.5 -57.5t-63.5 -153.5q0 -41 11 -66.5t40 -52.5q31 -31 67.5 -50t75.5 -36l131 -57q59 -27 113.5 -56.5t97.5 -72.5 q53 -53 75.5 -113.5t22.5 -134.5q0 -94 -32.5 -172t-91 -133t-137.5 -85t-171 -30q-68 0 -146.5 20.5t-150.5 90.5q-51 49 -81.5 114.5t-45.5 127.5z" />
<glyph unicode="T" horiz-adv-x="872" d="M29 1223v143h815v-143h-332v-1223h-152v1223h-331z" />
<glyph unicode="U" horiz-adv-x="1323" d="M176 487v879h152v-838q0 -43 2 -87t12 -87t31.5 -83t62.5 -74q41 -35 104.5 -56.5t121.5 -21.5q57 0 120.5 21.5t104.5 56.5t62.5 74.5t31.5 82.5t12 87t2 87v838h152v-879q0 -86 -15.5 -167.5t-70.5 -159.5q-61 -86 -164.5 -135.5t-234.5 -49.5t-234.5 49.5 t-165.5 135.5q-55 78 -70.5 159.5t-15.5 167.5z" />
<glyph unicode="V" horiz-adv-x="1138" d="M16 1366h168l385 -1042l385 1042h168l-553 -1448z" />
<glyph unicode="W" horiz-adv-x="1961" d="M16 1366h168l361 -1024l428 1094l405 -1094l400 1024h168l-574 -1438l-401 1094l-430 -1094z" />
<glyph unicode="X" horiz-adv-x="1032" d="M29 0l403 707l-366 659h172l282 -514l291 514h172l-375 -659l396 -707h-173l-313 561l-317 -561h-172z" />
<glyph unicode="Y" horiz-adv-x="1085" d="M16 1366h177l348 -610l352 610h176l-453 -778v-588h-151v588z" />
<glyph unicode="Z" horiz-adv-x="1097" d="M49 0l746 1223h-650v143h904l-746 -1223h725v-143h-979z" />
<glyph unicode="[" horiz-adv-x="593" d="M164 -360v1853h344v-135h-197v-1583h197v-135h-344z" />
<glyph unicode="\" horiz-adv-x="1187" d="M41 1475l119 61l1028 -1847l-119 -58z" />
<glyph unicode="]" horiz-adv-x="593" d="M86 -225h197v1583h-197v135h344v-1853h-344v135z" />
<glyph unicode="^" horiz-adv-x="1024" d="M53 748l363 618h192l363 -618h-160l-299 505l-299 -505h-160z" />
<glyph unicode="_" horiz-adv-x="1024" d="M0 -139h1024v-131h-1024v131z" />
<glyph unicode="`" horiz-adv-x="1024" d="M233 1294l152 70l215 -297l-90 -49z" />
<glyph unicode="a" horiz-adv-x="1077" d="M86 426q0 111 34 193.5t91 138t132 84t157 28.5q61 0 109 -15t83 -36.5t59.5 -46t39.5 -43.5v121h147v-850h-147v119q-18 -25 -45 -49.5t-63 -46t-82 -35t-101 -13.5q-80 0 -155 29t-132 85t-92 140t-35 197zM238 426q0 -68 18 -126t54 -101t88.5 -68t117.5 -25 q68 0 120 26t89 70t55.5 101t18.5 121q0 82 -25.5 141.5t-66.5 98t-91.5 57t-99.5 18.5q-55 0 -105.5 -19.5t-88 -59t-61 -98t-23.5 -136.5z" />
<glyph unicode="b" horiz-adv-x="1077" d="M139 0v1493h148v-762q37 47 79 75t80.5 42t73.5 18t58 4q100 0 176.5 -37.5t129 -101t80 -144.5t27.5 -167q0 -88 -27.5 -168t-80 -141.5t-128 -98.5t-171.5 -37q-104 0 -177 41t-120 103v-119h-148zM279 422q0 -66 20 -123t57 -100t89 -68t118 -25t117 25t86 68 t54.5 100t19.5 121q0 78 -24.5 138t-63.5 100t-89.5 60.5t-101.5 20.5t-102 -20.5t-91 -61.5t-64.5 -99t-24.5 -136z" />
<glyph unicode="c" horiz-adv-x="897" d="M86 420q0 98 34 180t95 142.5t144 94t182 33.5q102 0 167.5 -29.5t96.5 -52.5v-176q-59 74 -134 100.5t-132 26.5q-59 0 -113.5 -20.5t-96.5 -60.5t-66.5 -99t-24.5 -137t25.5 -136.5t67.5 -98.5t95 -60.5t111 -20.5q66 0 140.5 31t133.5 103v-177q-70 -51 -140.5 -69.5 t-129.5 -18.5q-98 0 -182.5 34t-144.5 93.5t-94 140.5t-34 177z" />
<glyph unicode="d" horiz-adv-x="1077" d="M86 426q0 111 34 193.5t91 138t132 84t157 28.5q61 0 109 -15t83 -36.5t59.5 -46t39.5 -43.5v764h147v-1493h-147v119q-18 -25 -45 -49.5t-63 -46t-82 -35t-101 -13.5q-80 0 -155 29t-132 85t-92 140t-35 197zM238 426q0 -68 18 -126t54 -101t88.5 -68t117.5 -25 q68 0 120 26t89 70t55.5 101t18.5 121q0 82 -25.5 141.5t-66.5 98t-91.5 57t-99.5 18.5q-55 0 -105.5 -19.5t-88 -59t-61 -98t-23.5 -136.5z" />
<glyph unicode="e" horiz-adv-x="985" d="M86 420q0 96 28.5 178t82 142.5t129 95t172.5 34.5q125 0 203.5 -50t117.5 -105q41 -57 63 -145q18 -75 18 -148q0 -14 -1 -27h-661q0 -66 21.5 -119t58 -91t86 -58.5t104.5 -20.5q100 0 174 62q29 25 51.5 55.5t36.5 61.5l123 -68q-18 -35 -45 -71.5t-60 -65.5 q-117 -104 -282 -105q-76 0 -151.5 26t-135 79t-96.5 137t-37 203zM248 518h500q-18 100 -87 160.5t-163 60.5t-164 -62.5t-86 -158.5z" />
<glyph unicode="f" horiz-adv-x="491" d="M61 715v135h82v367q0 59 12.5 125.5t69.5 113.5q66 55 170 55q41 0 66.5 -7t38.5 -11v-143q-45 18 -97 18q-25 0 -51 -8t-43 -37q-14 -23 -16 -55.5t-2 -67.5v-350h209v-135h-209v-715h-148v715h-82z" />
<glyph unicode="g" horiz-adv-x="1077" d="M86 426q0 111 34 193.5t91 138t132 84t157 28.5q61 0 109 -15t83 -36.5t59.5 -46t39.5 -43.5v121h147v-832q0 -35 -1 -75.5t-9 -83.5t-24.5 -88t-47.5 -86q-47 -66 -133 -112t-207 -46q-111 0 -185.5 36t-117.5 79t-77 111.5t-34 162.5h146q0 -53 18.5 -99t46.5 -77 q47 -51 101.5 -66.5t103.5 -15.5q154 0 225 119q33 53 40.5 108.5t7.5 108.5v125q-18 -25 -45 -49.5t-63 -46t-82 -35t-101 -13.5q-80 0 -155 29t-132 85t-92 140t-35 197zM238 426q0 -68 18 -126t54 -101t88.5 -68t117.5 -25q68 0 120 26t89 70t55.5 101t18.5 121 q0 82 -25.5 141.5t-66.5 98t-91.5 57t-99.5 18.5q-55 0 -105.5 -19.5t-88 -59t-61 -98t-23.5 -136.5z" />
<glyph unicode="h" horiz-adv-x="962" d="M139 0v1493h148v-741q10 12 29.5 32.5t49 40t70.5 32.5t94 13q76 0 140.5 -29.5t103.5 -86.5q33 -47 41 -101.5t8 -126.5v-526h-147v522q0 39 -6 80t-33 76q-23 29 -56.5 45t-82.5 16q-39 0 -78 -13t-72 -52q-43 -51 -52 -116.5t-9 -113.5v-444h-148z" />
<glyph unicode="i" horiz-adv-x="425" d="M109 1171q0 43 30.5 74t73.5 31t73.5 -31t30.5 -74t-30.5 -73.5t-73.5 -30.5t-73.5 30.5t-30.5 73.5zM139 0v850h148v-850h-148z" />
<glyph unicode="j" horiz-adv-x="425" d="M109 1171q0 43 30.5 74t73.5 31t73.5 -31t30.5 -74t-30.5 -73.5t-73.5 -30.5t-73.5 30.5t-30.5 73.5zM139 -479v1329h148v-1329h-148z" />
<glyph unicode="k" horiz-adv-x="864" d="M139 0v1493h148v-958l311 315h193l-365 -365l430 -485h-192l-340 387l-37 -37v-350h-148z" />
<glyph unicode="l" horiz-adv-x="425" d="M139 0v1493h148v-1493h-148z" />
<glyph unicode="m" horiz-adv-x="1402" d="M139 0v850h148v-90q35 53 89 81.5t122 28.5q57 0 99 -17t69.5 -39.5t43 -46.5t21.5 -34q31 49 67 76t70.5 41t66.5 17t52 3q94 0 149.5 -34.5t83 -86t36 -108.5t8.5 -102v-539h-148v516q0 37 -4 76t-19.5 71.5t-45 54t-82.5 21.5q-63 0 -101.5 -27.5t-58 -67.5t-24.5 -86 t-5 -85v-473h-147v504q0 23 -2 62.5t-17.5 77.5t-46.5 66.5t-90 28.5q-63 0 -100 -28.5t-56.5 -70.5t-24.5 -90t-5 -87v-463h-148z" />
<glyph unicode="n" horiz-adv-x="962" d="M139 0v850h148v-98q10 12 29.5 32.5t49 40t70.5 32.5t94 13q76 0 140.5 -29.5t103.5 -86.5q33 -47 41 -101.5t8 -126.5v-526h-147v522q0 39 -6 80t-33 76q-23 29 -56.5 45t-82.5 16q-39 0 -78 -13t-72 -52q-43 -51 -52 -116.5t-9 -113.5v-444h-148z" />
<glyph unicode="o" horiz-adv-x="1073" d="M86 422q0 96 34 179t94 142.5t142 93t181 33.5q98 0 180 -33.5t142.5 -93t94 -142.5t33.5 -179t-33.5 -178t-94 -141.5t-143.5 -93.5t-179 -34t-179.5 34t-143.5 93.5t-94 141.5t-34 178zM238 422q0 -78 25.5 -137.5t67.5 -99.5t95 -59.5t111 -19.5q57 0 111 20.5 t95 60.5t67 98.5t26 136.5t-25 137t-67 99t-95 60.5t-112 20.5q-57 0 -111.5 -20.5t-96.5 -60.5t-66.5 -99t-24.5 -137z" />
<glyph unicode="p" horiz-adv-x="1077" d="M139 -479v1329h148v-119q37 47 79 75t80.5 42t73.5 18t58 4q100 0 176.5 -37.5t129 -101t80 -144.5t27.5 -167q0 -88 -27.5 -168t-80 -141.5t-128 -98.5t-171.5 -37q-104 0 -177 41t-120 103v-598h-148zM279 422q0 -66 20 -123t57 -100t89 -68t118 -25t117 25t86 68 t54.5 100t19.5 121q0 78 -24.5 138t-63.5 100t-89.5 60.5t-101.5 20.5t-102 -20.5t-91 -61.5t-64.5 -99t-24.5 -136z" />
<glyph unicode="q" horiz-adv-x="1077" d="M86 426q0 111 34 193.5t91 138t132 84t157 28.5q61 0 109 -15t83 -36.5t59.5 -46t39.5 -43.5v121h147v-1329h-147v598q-18 -25 -45 -49.5t-63 -46t-82 -35t-101 -13.5q-80 0 -155 29t-132 85t-92 140t-35 197zM238 426q0 -68 18 -126t54 -101t88.5 -68t117.5 -25 q68 0 120 26t89 70t55.5 101t18.5 121q0 82 -25.5 141.5t-66.5 98t-91.5 57t-99.5 18.5q-55 0 -105.5 -19.5t-88 -59t-61 -98t-23.5 -136.5z" />
<glyph unicode="r" horiz-adv-x="606" d="M139 0v850h148v-92q6 8 20.5 26.5t38 38t57 33.5t76.5 14q35 0 69 -10t62 -24l-69 -134q-25 16 -47.5 22.5t-38.5 6.5q-45 0 -74 -15.5t-45 -37.5q-18 -25 -33.5 -75t-15.5 -154v-449h-148z" />
<glyph unicode="s" horiz-adv-x="720" d="M74 193l127 53q6 -16 18 -41t33.5 -46.5t51.5 -37t69 -15.5q72 0 105.5 44.5t33.5 91.5q0 59 -39 86.5t-98 54.5q-78 35 -128 62.5t-79 62.5q-25 31 -32 61.5t-7 63.5q0 113 69.5 175t178.5 62q16 0 46 -3t62.5 -18t66.5 -46t58 -86l-121 -64q-16 37 -46.5 61.5 t-71.5 24.5t-72 -23.5t-31 -72.5q0 -47 33 -68.5t105 -52.5q92 -39 140 -69.5t72 -61.5q29 -35 37.5 -68.5t8.5 -68.5q0 -68 -23 -119t-62.5 -87t-93 -54.5t-114.5 -18.5q-12 0 -50 4.5t-84.5 25t-91.5 64.5t-71 124z" />
<glyph unicode="t" horiz-adv-x="438" d="M53 715v135h90v307h148v-307h147v-135h-147v-715h-148v715h-90z" />
<glyph unicode="u" horiz-adv-x="954" d="M139 338v512h148v-496q0 -45 5 -93t36 -89q16 -23 52 -44.5t97 -21.5t97 22t53 44q31 41 36 89t5 93v496h147v-512q0 -78 -13.5 -139.5t-64.5 -116.5q-57 -59 -126.5 -83t-133.5 -24q-63 0 -133 24t-127 83q-51 55 -64.5 116.5t-13.5 139.5z" />
<glyph unicode="v" horiz-adv-x="868" d="M16 850h164l254 -574l254 574h164l-418 -905z" />
<glyph unicode="w" horiz-adv-x="1396" d="M16 850h164l252 -578l266 643l265 -643l254 578h163l-422 -909l-262 634l-262 -634z" />
<glyph unicode="x" horiz-adv-x="929" d="M16 0l363 455l-309 395h180l219 -289l223 289h180l-311 -397l352 -453h-180l-268 346l-268 -346h-181z" />
<glyph unicode="y" horiz-adv-x="942" d="M16 850h168l301 -608l277 608h164l-629 -1329h-164l275 559z" />
<glyph unicode="z" horiz-adv-x="942" d="M16 0l615 715h-496v135h791l-615 -715h590v-135h-885z" />
<glyph unicode="{" horiz-adv-x="1026" d="M299 446v119q20 2 45 13.5t45 44.5q27 45 27 125v362q0 29 3 61.5t12 64.5t29.5 60.5t53.5 51.5q41 29 93 35t98 6h55v-125h-31q-16 0 -57 -5.5t-70 -31.5q-29 -29 -34 -68t-5 -74v-348q0 -39 -5 -77.5t-21 -67.5q-16 -27 -43 -49.5t-56 -36.5q29 -14 55.5 -37t43.5 -49 q16 -29 21 -68t5 -78v-348q0 -35 5 -73.5t34 -67.5q29 -27 70 -32t57 -5h31v-125h-55q-45 0 -97.5 6t-93.5 35q-33 23 -53.5 51.5t-29.5 60t-12 64.5t-3 62v362q0 80 -27 125q-20 33 -45 44t-45 13z" />
<glyph unicode="|" horiz-adv-x="1024" d="M438 -512v2048h148v-2048h-148z" />
<glyph unicode="}" horiz-adv-x="1026" d="M266 -252h31q16 0 57 5t70 32q29 29 34 67.5t5 73.5v348q0 39 5 78t21 68q16 27 43 49.5t56 36.5q-29 14 -55.5 36.5t-43.5 49.5q-16 29 -21 67.5t-5 77.5v348q0 35 -5 74t-34 68q-29 27 -70 32t-57 5h-31v125h56q45 0 97 -6.5t93 -34.5q35 -23 54.5 -51.5t28.5 -60.5 t12 -64.5t3 -61.5v-362q0 -80 27 -125q20 -33 45 -44.5t45 -13.5v-119q-20 -2 -45 -13t-45 -44q-27 -45 -27 -125v-362q0 -29 -3 -62t-12 -64.5t-28.5 -60t-54.5 -51.5q-41 -29 -93 -35t-97 -6h-56v125z" />
<glyph unicode="~" horiz-adv-x="1368" d="M193 1247q18 41 46.5 87t51.5 73q37 41 81 59.5t97 18.5q57 0 111.5 -19.5t119.5 -50.5q47 -23 97.5 -44t97.5 -21q76 0 125 49q20 18 37.5 42.5t27.5 47.5l91 -53q-16 -39 -43 -79t-60 -71q-37 -37 -85 -58.5t-111 -21.5q-59 0 -113.5 22.5t-108.5 47.5 q-70 33 -111.5 49t-82.5 16q-59 0 -107 -41q-23 -18 -41 -47.5t-30 -58.5z" />
<glyph unicode="&#xa3;" d="M111 53q12 23 35.5 51.5t56.5 56t76 47t96 19.5q25 37 41 81t16 91q0 20 -2 42t-10 44h-230v115h179l-58 117q-23 47 -56.5 115.5t-33.5 168.5q0 90 32 161t87 120t129 75.5t156 26.5q117 0 193.5 -44t123.5 -115q37 -53 55.5 -120t22.5 -126l-150 -41q4 47 -6 100.5 t-39 98.5q-35 55 -84 79.5t-114 24.5q-63 0 -110.5 -21.5t-78 -56.5t-46 -79t-15.5 -91q0 -80 33.5 -148.5t74.5 -146.5l52 -98h258v-115h-220q12 -31 13 -79q0 -29 -10.5 -82.5t-49.5 -114.5l121 -45q43 -16 79 -29.5t73 -13.5q53 0 97 39t67 102l125 -74 q-14 -33 -38 -69.5t-59 -68.5t-81 -52.5t-105 -20.5q-43 0 -83 11.5t-81 23.5q-16 4 -30.5 9.5t-30.5 11.5q-49 16 -99.5 33.5t-91.5 17.5t-88 -26.5t-76 -84.5z" />
<glyph unicode="&#xa4;" horiz-adv-x="1368" d="M111 1221l82 82l194 -193q76 66 157 85t140 19t140 -19t157 -85l195 193l81 -82l-194 -195q66 -76 85 -154.5t19 -136.5q0 -57 -19.5 -136t-84.5 -155l192 -192l-81 -82l-193 190q-76 -66 -157 -85t-140 -19t-140 19.5t-157 84.5l-192 -190l-82 82l192 192 q-66 76 -85 155t-19 136t19.5 136t84.5 155zM340 735q0 -76 26.5 -140.5t72.5 -110.5t108.5 -71.5t136.5 -25.5t136.5 25.5t108.5 71.5t72.5 110.5t26.5 140.5q0 78 -26.5 141.5t-72.5 109.5t-108.5 71.5t-136.5 25.5t-136.5 -25.5t-108.5 -71.5t-72.5 -109.5t-26.5 -141.5z " />
<glyph unicode="&#xa7;" d="M207 569q0 84 25.5 142.5t59.5 95.5t68.5 56.5t53.5 27.5q-63 33 -98 73t-51.5 78.5t-19.5 72.5t-3 54q0 66 22.5 127.5t66.5 108.5t111.5 75.5t157.5 28.5q74 0 127 -19.5t91 -48t61.5 -63.5t35.5 -65q16 -41 26.5 -89t8.5 -102h-147q2 43 -8.5 84t-26.5 74 q-25 47 -64.5 70.5t-101.5 23.5q-100 0 -156.5 -61.5t-56.5 -147.5q0 -55 24.5 -93t61.5 -64.5t81 -43t83 -30.5q82 -29 128 -52.5t81 -52.5q66 -57 87 -124.5t21 -129.5q0 -111 -56 -192.5t-150 -126.5q16 -6 44.5 -24.5t57.5 -50t50.5 -82t21.5 -122.5q0 -63 -20.5 -126.5 t-63.5 -113.5t-110.5 -81t-164.5 -31q-133 0 -212 59.5t-111 141.5q-16 39 -23.5 86t-5.5 92h147q0 -39 10.5 -83t28.5 -73t57.5 -58.5t110.5 -29.5q98 0 151.5 56.5t53.5 154.5q0 49 -15.5 85t-41 60.5t-57 41t-66.5 28.5q-61 23 -141 53.5t-142 86.5q-61 55 -81.5 117.5 t-20.5 125.5zM358 573q0 -96 63.5 -159.5t160.5 -63.5q96 0 159.5 63.5t63.5 159.5t-63.5 160t-159.5 64t-160 -63.5t-64 -160.5z" />
<glyph unicode="&#xa9;" horiz-adv-x="1515" d="M51 682q0 147 56.5 276t152.5 224.5t225 151t273 55.5q145 0 273 -55.5t224.5 -151t152.5 -224.5t56 -276q0 -145 -56 -274t-152.5 -224.5t-224.5 -151t-273 -55.5t-273.5 55.5t-224.5 151t-152.5 224.5t-56.5 274zM166 682q0 -123 46 -230.5t127 -187.5t188.5 -126 t230.5 -46t230.5 46t188 126t127 187.5t46.5 230.5t-46.5 230.5t-127 188.5t-188 127t-230.5 46t-230.5 -46t-188.5 -127t-127 -188.5t-46 -230.5zM379 672q0 90 32.5 168t90 135t135.5 89t168 32q55 0 120.5 -16.5t127.5 -61.5v-164q-53 66 -125 92.5t-125 26.5 q-55 0 -106.5 -19.5t-90.5 -57.5t-62.5 -94.5t-23.5 -127.5q0 -74 24.5 -129.5t63.5 -92t90.5 -55t102.5 -18.5q78 0 144.5 35t113.5 90v-166q-74 -53 -139.5 -67.5t-114.5 -14.5q-92 0 -170 30.5t-135.5 86t-89 131.5t-31.5 168z" />
<glyph unicode="&#xab;" horiz-adv-x="880" d="M74 434l307 385l94 -76l-246 -309l246 -299l-94 -74zM377 434l307 385l94 -76l-246 -309l246 -299l-94 -74z" />
<glyph unicode="&#xac;" horiz-adv-x="1024" d="M68 416v131h888v-547h-143v416h-745z" />
<glyph unicode="&#xad;" horiz-adv-x="614" d="M82 360v152h450v-152h-450z" />
<glyph unicode="&#xae;" horiz-adv-x="1540" d="M68 680q0 152 53 279.5t147 222t223.5 147.5t278.5 53q152 0 280 -53t222 -147.5t147.5 -222.5t53.5 -279q0 -150 -53.5 -279t-147.5 -223t-222 -147.5t-280 -53.5q-150 0 -279 53.5t-223 147.5t-147 223t-53 279zM182 680q0 -125 45 -233.5t123 -186.5t186.5 -123 t233.5 -45q127 0 234.5 45t185.5 123t123 186.5t45 233.5q0 127 -45 234.5t-123 185.5t-185.5 123t-234.5 45q-125 0 -233.5 -45t-186.5 -123t-123 -185.5t-45 -234.5zM555 297v766h139q23 0 72 -4t98 -24.5t87 -64.5t38 -126q0 -88 -55 -145.5t-143 -67.5l264 -334h-140 l-249 324v-324h-111zM666 719h45q25 0 54.5 3t55 15.5t42 37t16.5 65.5q0 45 -17.5 70.5t-43 38t-55.5 14.5t-56 2h-41v-246z" />
<glyph unicode="&#xb0;" horiz-adv-x="1009" d="M221 1087q0 61 21.5 112.5t59.5 89.5t89 59.5t113 21.5q61 0 112.5 -21.5t89 -59.5t59 -89t21.5 -113q0 -61 -21.5 -112t-59 -89t-89 -59.5t-112.5 -21.5t-112.5 21.5t-89.5 59.5t-59.5 89t-21.5 112zM324 1087q0 -47 17 -82.5t43 -59t57.5 -35t62.5 -11.5t62.5 11.5 t57 35t43 59t17.5 82.5t-17.5 83t-43 59.5t-57 35t-62.5 11.5t-62.5 -11.5t-57.5 -35t-43 -59.5t-17 -83z" />
<glyph unicode="&#xb1;" horiz-adv-x="1024" d="M68 137v135h888v-135h-888zM68 707v135h370v350h148v-350h370v-135h-370v-351h-148v351h-370z" />
<glyph unicode="&#xb5;" horiz-adv-x="1071" d="M139 -348v1198h148v-424q0 -18 1 -48t7 -63.5t18.5 -67.5t34.5 -63q39 -49 91.5 -63.5t88.5 -14.5q74 0 126.5 37t80.5 84q37 59 43 120t6 97v406h148v-850h-148v176q-31 -86 -96 -143.5t-164 -57.5q-57 0 -100 19.5t-71.5 45.5t-44 50.5t-21.5 34.5v-473h-148z" />
<glyph unicode="&#xb6;" horiz-adv-x="1187" d="M45 999q0 45 11.5 93.5t37 93.5t67.5 83t105 62q29 10 83 22.5t147 12.5h548v-119h-122v-1450h-127v1450h-217v-1450h-127v846h-31q-82 0 -150.5 26.5t-119 74t-78 113t-27.5 142.5z" />
<glyph unicode="&#xbb;" horiz-adv-x="880" d="M102 137l246 309l-246 299l95 74l307 -373l-307 -385zM406 137l245 309l-245 299l94 74l307 -373l-307 -385z" />
<glyph unicode="&#xf7;" horiz-adv-x="1024" d="M68 614v136h888v-136h-888zM412 309q0 41 29.5 71t70.5 30t70.5 -30t29.5 -71t-29.5 -70.5t-70.5 -29.5t-70.5 29.5t-29.5 70.5zM412 1055q0 41 29.5 70.5t70.5 29.5t70.5 -29.5t29.5 -70.5t-29.5 -71t-70.5 -30t-70.5 30t-29.5 71z" />
<glyph unicode="&#x192;" horiz-adv-x="1161" d="M39 -330l29 131q6 0 28.5 -2t38.5 -2q49 0 84 12.5t59.5 31t39 40t22.5 37.5q23 47 38 107.5t21 93.5l107 583h-148l19 123h151l56 308q8 47 28.5 114.5t71.5 116.5q45 43 97.5 55.5t99.5 12.5q43 0 74.5 -7.5t48.5 -13.5l-27 -137q-10 6 -28.5 14t-63.5 8 q-27 0 -50.5 -7t-46.5 -29q-8 -10 -26.5 -43t-34.5 -125l-49 -267h217l-18 -123h-222l-108 -589q-18 -98 -36.5 -168t-45.5 -117q-45 -80 -131 -123t-207 -43q-29 0 -49.5 2t-38.5 6z" />
<glyph unicode="&#x401;" horiz-adv-x="987" d="M176 0v1366h709v-143h-557v-406h540v-143h-540v-531h557v-143h-709zM229 1606q0 43 31 73.5t74 30.5t73.5 -30.5t30.5 -73.5t-30.5 -74t-73.5 -31t-74 31t-31 74zM618 1606q0 43 31 73.5t74 30.5t73.5 -30.5t30.5 -73.5t-30.5 -74t-73.5 -31t-74 31t-31 74z" />
<glyph unicode="&#x402;" horiz-adv-x="1388" d="M29 1223v143h893v-143h-414v-402q29 2 65.5 5t76.5 5.5t77 3.5t64 1q74 0 152.5 -12.5t154.5 -53.5q66 -35 105.5 -82t61 -98t30 -103.5t8.5 -97.5q0 -94 -31 -171t-84 -131t-128 -83t-163 -29q-82 0 -145.5 17.5t-116.5 46.5l49 141q27 -16 82 -38.5t133 -22.5 q113 0 180.5 70.5t67.5 193.5q0 63 -14.5 108.5t-36 76t-47 50t-48.5 31.5q-53 27 -110 35t-117 8q-55 0 -129 -4t-137 -10v-678h-152v1223h-327z" />
<glyph unicode="&#x403;" horiz-adv-x="827" d="M176 0v1366h623v-143h-471v-1223h-152zM401 1540l258 266l144 -92l-314 -239z" />
<glyph unicode="&#x404;" horiz-adv-x="1320" d="M102 678q0 154 47.5 284t134.5 225t210.5 148.5t279.5 53.5q96 0 211 -27t234 -109v-188q-53 53 -102.5 82t-76.5 41q-63 29 -134.5 43t-141.5 14q-104 0 -193.5 -37t-155 -100.5t-104.5 -148.5t-47 -181h791v-143h-797q0 -117 41 -212t111.5 -162.5t163 -104.5 t192.5 -37q68 0 144.5 16.5t150.5 50.5q47 23 85 49.5t73 61.5v-188q-127 -82 -247 -108t-206 -26q-154 0 -276.5 53.5t-208.5 147.5t-132.5 223t-46.5 279z" />
<glyph unicode="&#x405;" horiz-adv-x="1060" d="M102 328l148 41q8 -53 30.5 -98.5t51.5 -75.5q45 -45 94 -60.5t102 -15.5q70 0 122 22.5t86 60.5t50.5 87t16.5 100q0 47 -15.5 86t-52.5 74q-29 29 -69.5 49t-94.5 45l-122 57q-41 18 -88.5 43t-94.5 70q-45 43 -69.5 94t-24.5 129q0 80 28.5 144.5t80 110.5t122 72 t152.5 26q63 0 115.5 -13.5t103.5 -48.5q41 -29 76 -67.5t57 -83.5l-121 -80q-14 29 -35.5 56.5t-43.5 45.5q-20 16 -57.5 31.5t-96.5 15.5q-102 0 -165.5 -57.5t-63.5 -153.5q0 -41 11 -66.5t40 -52.5q31 -31 67.5 -50t75.5 -36l131 -57q59 -27 113.5 -56.5t97.5 -72.5 q53 -53 75.5 -113.5t22.5 -134.5q0 -94 -32.5 -172t-91 -133t-137.5 -85t-171 -30q-68 0 -146.5 20.5t-150.5 90.5q-51 49 -81.5 114.5t-45.5 127.5z" />
<glyph unicode="&#x406;" horiz-adv-x="503" d="M176 0v1366h152v-1366h-152z" />
<glyph unicode="&#x407;" horiz-adv-x="503" d="M0 1606q0 43 30.5 73.5t73.5 30.5t74 -30.5t31 -73.5t-31 -74t-74 -31t-73.5 31t-30.5 74zM176 0v1366h152v-1366h-152zM295 1606q0 43 30.5 73.5t73.5 30.5t74 -30.5t31 -73.5t-31 -74t-74 -31t-73.5 31t-30.5 74z" />
<glyph unicode="&#x408;" horiz-adv-x="626" d="M-94 -41l84 119q35 -33 71.5 -54.5t85.5 -21.5q45 0 72 17.5t39 33.5q27 33 34 85t7 124v1104h152v-1104q0 -53 -4.5 -104.5t-17.5 -96.5t-40 -83.5t-72 -69.5q-76 -49 -167 -49q-41 0 -104.5 17.5t-139.5 82.5z" />
<glyph unicode="&#x409;" horiz-adv-x="1888" d="M29 0v143q16 -4 34.5 -8t40.5 -4q47 0 80 16.5t54 36.5q31 31 46 72t22 89t8 101.5t1 104.5v815h832v-567h184q63 0 144 -11.5t154 -50.5t123 -115.5t50 -207.5q0 -197 -119.5 -305.5t-322.5 -108.5h-365v1223h-528v-734q0 -45 -1 -100t-12.5 -111.5t-36 -110.5 t-73.5 -97q-45 -41 -105.5 -61.5t-127.5 -20.5q-8 0 -30 2t-52 10zM1147 143h176q23 0 54.5 1t65.5 8.5t68.5 22.5t63.5 44q29 27 50.5 74t21.5 121q0 49 -19.5 108.5t-91.5 98.5q-47 27 -106.5 30.5t-122.5 3.5h-160v-512z" />
<glyph unicode="&#x40a;" horiz-adv-x="1921" d="M176 0v1366h152v-567h700v567h152v-567h184q63 0 144 -11.5t154 -50.5t123 -115.5t50 -207.5q0 -197 -120 -305.5t-322 -108.5h-365v655h-700v-655h-152zM1180 143h176q23 0 54.5 1t65 8.5t68.5 22.5t64 44q29 27 50 74t21 121q0 49 -19.5 108.5t-90.5 98.5 q-47 27 -106.5 30.5t-123.5 3.5h-159v-512z" />
<glyph unicode="&#x40b;" horiz-adv-x="1388" d="M29 1223v143h893v-143h-414v-402q31 2 68.5 5t76.5 5.5t75 3.5t63 1q129 0 208.5 -17.5t128.5 -56.5q43 -33 68 -74t38 -84t16 -84t3 -76v-444h-151v424q0 20 -1 49t-9.5 60.5t-24.5 62.5t-47 53q-37 29 -97.5 36t-140.5 7q-88 0 -156.5 -5t-117.5 -9v-678h-152v1223 h-327z" />
<glyph unicode="&#x40c;" d="M176 0v1366h152v-586l581 586h205l-639 -637l660 -729h-209l-559 627l-39 -39v-588h-152zM492 1540l258 266l143 -92l-313 -239z" />
<glyph unicode="&#x40e;" d="M16 1366h185l426 -805l356 805h164l-617 -1366h-163l174 381zM276 1675l144 47q12 -43 38.5 -65.5t54.5 -33.5t51.5 -13t29.5 -2t29.5 2t51 13t54.5 33.5t39 65.5l143 -47q-4 -12 -21.5 -45t-54 -66.5t-95 -60t-146.5 -26.5t-146.5 26.5t-95.5 60t-54 66.5t-22 45z" />
<glyph unicode="&#x40f;" horiz-adv-x="1347" d="M176 0v1366h152v-1223h692v1223h151v-1366h-426v-328h-143v328h-426z" />
<glyph unicode="&#x410;" horiz-adv-x="1273" d="M16 0l629 1432l612 -1432h-167l-160 385h-582l-164 -385h-168zM408 528h462l-229 547z" />
<glyph unicode="&#x411;" horiz-adv-x="1085" d="M176 0v1366h678v-143h-526v-424h184q63 0 144 -11.5t154 -50.5t123 -115.5t50 -207.5q0 -197 -120 -305.5t-322 -108.5h-365zM328 143h176q23 0 54.5 1t65 8.5t68.5 22.5t64 44q29 27 50 74t21 121q0 49 -19.5 108.5t-90.5 98.5q-47 27 -106.5 30.5t-123.5 3.5h-159v-512 z" />
<glyph unicode="&#x412;" horiz-adv-x="1085" d="M176 0v1366h246q29 0 66.5 -2t80.5 -11.5t86 -25.5t80 -47q16 -12 38 -34.5t40 -56.5t31.5 -82t13.5 -110q0 -25 -4 -58.5t-18.5 -70.5t-41 -72.5t-71.5 -66.5q72 -18 121 -55t79.5 -85t45 -101.5t14.5 -102.5q0 -98 -42 -175t-97 -120q-82 -63 -169 -76.5t-159 -13.5 h-340zM328 143h174q66 0 128 9.5t111 48.5q41 29 65.5 78t24.5 110q0 82 -37.5 130t-78.5 71q-74 41 -232 41h-155v-488zM328 766h114q31 0 76 6t88 28.5t74 67.5t31 125q0 84 -35 131t-81 68.5t-89 26t-60 4.5h-118v-457z" />
<glyph unicode="&#x413;" horiz-adv-x="827" d="M176 0v1366h623v-143h-471v-1223h-152z" />
<glyph unicode="&#x414;" horiz-adv-x="1310" d="M29 143q74 -4 130 51.5t87 133.5q20 51 34.5 134t14.5 224v680h831v-1223h156v-430h-143v287h-967v-287h-143v430zM293 143h682v1080h-529v-537q0 -141 -12 -228t-37 -153q-18 -49 -43.5 -88t-60.5 -74z" />
<glyph unicode="&#x415;" horiz-adv-x="987" d="M176 0v1366h709v-143h-557v-406h540v-143h-540v-531h557v-143h-709z" />
<glyph unicode="&#x416;" horiz-adv-x="1658" d="M29 0l589 729l-573 637h188l521 -586v586h151v-586l520 586h189l-574 -637l590 -729h-192l-500 625l-33 -37v-588h-151v588l-33 37l-500 -625h-192z" />
<glyph unicode="&#x417;" horiz-adv-x="1179" d="M102 303l148 66q41 -117 135 -183.5t217 -66.5q55 0 110.5 14t98.5 43q66 47 88.5 105.5t22.5 113.5q0 94 -38 147.5t-94.5 80t-120 34t-112.5 7.5h-123v143h123q143 0 211 68.5t68 162.5q0 45 -15.5 82t-40.5 62q-41 41 -92 52t-92 11q-74 0 -143.5 -28.5t-130.5 -118.5 l-117 92q41 61 89 100t98 60.5t102.5 30t101.5 8.5q27 0 61.5 -3.5t73.5 -13.5t79 -28.5t75 -51.5q45 -41 75.5 -103.5t30.5 -148.5q0 -104 -54 -178t-134 -110q137 -31 205.5 -129.5t68.5 -223.5q0 -127 -53 -207.5t-117 -125.5q-66 -45 -146.5 -68t-164.5 -23 q-100 0 -181 29t-141.5 75t-102.5 105.5t-69 118.5z" />
<glyph unicode="&#x418;" horiz-adv-x="1454" d="M176 -61v1427h152v-1047l950 1104v-1423h-152v1042z" />
<glyph unicode="&#x419;" horiz-adv-x="1454" d="M176 -61v1427h152v-1047l950 1104v-1423h-152v1042zM410 1675l143 47q12 -43 38.5 -65.5t54.5 -33.5t51.5 -13t29.5 -2t29.5 2t51.5 13t54.5 33.5t38.5 65.5l143 -47q-4 -12 -21 -45t-54 -66.5t-95.5 -60t-146.5 -26.5t-146.5 26.5t-95 60t-54 66.5t-21.5 45z" />
<glyph unicode="&#x41a;" d="M176 0v1366h152v-586l581 586h205l-639 -637l660 -729h-209l-559 627l-39 -39v-588h-152z" />
<glyph unicode="&#x41b;" horiz-adv-x="1323" d="M29 0v143q16 -4 34.5 -8t40.5 -4q47 0 80 16.5t54 36.5q31 31 46 72t22 89t8 101.5t1 104.5v815h832v-1366h-152v1223h-528v-734q0 -45 -1 -100t-12.5 -111.5t-36 -110.5t-73.5 -97q-45 -41 -105.5 -61.5t-127.5 -20.5q-8 0 -30 2t-52 10z" />
<glyph unicode="&#x41c;" horiz-adv-x="1767" d="M129 0l227 1442l525 -1153l534 1155l213 -1444h-155l-130 950l-464 -1007l-459 1007l-135 -950h-156z" />
<glyph unicode="&#x41d;" horiz-adv-x="1355" d="M176 0v1366h152v-555h700v555h152v-1366h-152v668h-700v-668h-152z" />
<glyph unicode="&#x41e;" horiz-adv-x="1626" d="M102 682q0 154 55.5 283t153 223t226.5 147.5t276 53.5t276.5 -53.5t226.5 -147.5t152.5 -223t55.5 -283q0 -152 -55.5 -282t-151.5 -224t-226.5 -147.5t-277.5 -53.5t-277 53.5t-226.5 147.5t-152 224t-55.5 282zM258 682q0 -117 44 -220.5t119 -179t176 -119.5t216 -44 t216 44t177 119.5t119 179t43 220.5t-43 220.5t-119 179t-177 119.5t-216 44t-216 -44t-176 -119.5t-119 -179t-44 -220.5z" />
<glyph unicode="&#x41f;" horiz-adv-x="1355" d="M176 0v1366h1004v-1366h-152v1223h-700v-1223h-152z" />
<glyph unicode="&#x420;" horiz-adv-x="933" d="M176 0v1366h248q104 0 189 -18.5t155 -77.5q76 -66 100.5 -147t24.5 -146q0 -72 -23.5 -140.5t-76 -123t-134 -87t-198.5 -32.5h-133v-594h-152zM328 737h125q135 0 211.5 64.5t76.5 183.5q0 82 -32.5 129t-80.5 71.5t-99.5 31t-88.5 6.5h-112v-486z" />
<glyph unicode="&#x421;" horiz-adv-x="1323" d="M102 678q0 154 54.5 284t149.5 225t226.5 148.5t284.5 53.5q31 0 75 -3.5t96 -17.5t111.5 -41t121.5 -74v-188q-33 33 -79 67.5t-100 59.5q-53 25 -114.5 39t-120.5 14q-119 0 -219.5 -45t-174 -122t-114.5 -180t-41 -222q0 -139 51 -243.5t131 -174.5t177.5 -104.5 t191.5 -34.5q70 0 135.5 17.5t118.5 45.5q59 29 99 63t59 52v-188q-115 -82 -224.5 -108t-187.5 -26q-152 0 -282 54.5t-224 148.5t-147.5 223t-53.5 277z" />
<glyph unicode="&#x422;" horiz-adv-x="872" d="M29 1223v143h815v-143h-332v-1223h-152v1223h-331z" />
<glyph unicode="&#x423;" d="M16 1366h185l426 -805l356 805h164l-617 -1366h-163l174 381z" />
<glyph unicode="&#x424;" horiz-adv-x="1683" d="M102 725q0 84 27 177t96.5 172t191.5 131t312 52h37v164h152v-164h36q190 0 312.5 -52t192 -131t96 -172t26.5 -177q0 -82 -26.5 -176t-96 -173t-191.5 -131t-313 -52h-36v-193h-152v193h-37q-190 0 -312 52t-191.5 131t-96.5 173t-27 176zM258 725q0 -66 20.5 -134.5 t72.5 -125.5t143.5 -93t230.5 -36h41v778h-41q-139 0 -230.5 -36t-143.5 -93t-72.5 -125.5t-20.5 -134.5zM918 336h40q139 0 230.5 36t143.5 93t72.5 125.5t20.5 134.5t-20.5 134.5t-72.5 125.5t-143 93t-231 36h-40v-778z" />
<glyph unicode="&#x425;" horiz-adv-x="1032" d="M29 0l403 707l-366 659h172l282 -514l291 514h172l-375 -659l396 -707h-173l-313 561l-317 -561h-172z" />
<glyph unicode="&#x426;" horiz-adv-x="1355" d="M176 0v1366h152v-1223h692v1223h151v-1223h156v-430h-143v287h-1008z" />
<glyph unicode="&#x427;" horiz-adv-x="1208" d="M135 963v403h152v-383q0 -20 1 -49t9 -60.5t24.5 -62.5t47.5 -53q37 -29 97 -36t140 -7q88 0 156.5 5t118.5 9v637h151v-1366h-151v586q-31 -2 -69 -5t-77 -5.5t-74.5 -3.5t-62.5 -1q-129 0 -209 17.5t-129 56.5q-43 33 -67.5 74t-38 84t-16.5 84t-3 76z" />
<glyph unicode="&#x428;" horiz-adv-x="1888" d="M176 0v1366h152v-1223h540v1223h152v-1223h541v1223h151v-1366h-1536z" />
<glyph unicode="&#x429;" horiz-adv-x="1896" d="M176 0v1366h152v-1223h540v1223h152v-1223h541v1223h151v-1223h156v-430h-144v287h-1548z" />
<glyph unicode="&#x42a;" horiz-adv-x="1249" d="M29 1223v143h479v-567h184q63 0 144.5 -11.5t154 -50.5t122.5 -115.5t50 -207.5q0 -197 -119.5 -305.5t-322.5 -108.5h-365v1223h-327zM508 143h176q23 0 54.5 1t65.5 8.5t68.5 22.5t63.5 44q29 27 50.5 74t21.5 121q0 49 -19.5 108.5t-91.5 98.5q-47 27 -106.5 30.5 t-122.5 3.5h-160v-512z" />
<glyph unicode="&#x42b;" horiz-adv-x="1454" d="M176 0v1366h152v-567h184q63 0 144 -11.5t154 -50.5t123 -115.5t50 -207.5q0 -197 -120 -305.5t-322 -108.5h-365zM328 143h176q23 0 54.5 1t65 8.5t68.5 22.5t64 44q29 27 50 74t21 121q0 49 -19.5 108.5t-90.5 98.5q-47 27 -106.5 30.5t-123.5 3.5h-159v-512zM1126 0 v1366h152v-1366h-152z" />
<glyph unicode="&#x42c;" horiz-adv-x="1069" d="M176 0v1366h152v-567h184q63 0 144 -11.5t154 -50.5t123 -115.5t50 -207.5q0 -197 -120 -305.5t-322 -108.5h-365zM328 143h176q23 0 54.5 1t65 8.5t68.5 22.5t64 44q29 27 50 74t21 121q0 49 -19.5 108.5t-90.5 98.5q-47 27 -106.5 30.5t-123.5 3.5h-159v-512z" />
<glyph unicode="&#x42d;" horiz-adv-x="1320" d="M102 109v188q35 -35 73 -61.5t85 -49.5q74 -35 150.5 -51t144.5 -16q100 0 192.5 37t163 104.5t111.5 162.5t41 212h-797v143h791q-8 96 -47 181t-104.5 148.5t-154.5 100.5t-194 37q-70 0 -141.5 -14t-134.5 -43q-27 -12 -76 -41t-103 -82v188q119 82 234 109t211 27 q156 0 279.5 -53.5t210.5 -148.5t134.5 -225.5t47.5 -283.5q0 -150 -46.5 -279t-132.5 -223t-208.5 -147.5t-276.5 -53.5q-86 0 -206 26t-247 108z" />
<glyph unicode="&#x42e;" horiz-adv-x="2027" d="M176 0v1366h152v-569h209q18 127 76.5 234.5t149.5 187t209 125t255 45.5q152 0 278.5 -52.5t221 -145.5t146.5 -223t52 -286q0 -152 -52 -282t-146.5 -224t-221.5 -147.5t-278 -53.5q-154 0 -280 55.5t-216 148.5t-142 216t-59 258h-202v-653h-152zM686 682 q0 -121 42 -224.5t116 -178t172 -117.5t211 -43t212 43t173 117.5t115.5 178t41.5 224.5t-41.5 224.5t-115.5 178t-173 117.5t-212 43t-211 -43t-172 -117.5t-116 -178t-42 -224.5z" />
<glyph unicode="&#x42f;" horiz-adv-x="1044" d="M61 0l402 606q-47 4 -110.5 22.5t-119.5 63.5q-74 59 -96 134t-22 145q0 92 26.5 158.5t67.5 113.5q41 45 87 69.5t92 37t88 14.5t73 2h319v-1366h-151v598h-82l-389 -598h-185zM270 975q0 -70 22.5 -114t55.5 -70q43 -35 101.5 -46.5t107.5 -11.5h160v490h-148 q-53 0 -118.5 -10.5t-114.5 -61.5q-29 -29 -47.5 -74t-18.5 -102z" />
<glyph unicode="&#x430;" horiz-adv-x="1077" d="M86 426q0 111 34 193.5t91 138t132 84t157 28.5q61 0 109 -15t83 -36.5t59.5 -46t39.5 -43.5v121h147v-850h-147v119q-18 -25 -45 -49.5t-63 -46t-82 -35t-101 -13.5q-80 0 -155 29t-132 85t-92 140t-35 197zM238 426q0 -68 18 -126t54 -101t88.5 -68t117.5 -25 q68 0 120 26t89 70t55.5 101t18.5 121q0 82 -25.5 141.5t-66.5 98t-91.5 57t-99.5 18.5q-55 0 -105.5 -19.5t-88 -59t-61 -98t-23.5 -136.5z" />
<glyph unicode="&#x431;" horiz-adv-x="1073" d="M86 520q0 57 5 150.5t27.5 196t72 197.5t137.5 157q70 47 146.5 67.5t150.5 36.5q86 20 120.5 47t49.5 62h163q-18 -61 -51 -102.5t-72.5 -67t-79.5 -40t-75 -22.5q-59 -16 -134 -34.5t-136 -63.5q-80 -59 -127 -166t-52 -223h5q41 72 117.5 113.5t191.5 41.5 q96 0 177 -34.5t139.5 -94t92 -141.5t33.5 -178q0 -94 -33.5 -176t-94 -142.5t-146.5 -94.5t-191 -34q-109 0 -180.5 34t-112.5 73q-49 45 -76.5 98t-43 109.5t-19.5 116t-4 114.5zM238 422q0 -78 25.5 -137.5t67.5 -99.5t95 -59.5t111 -19.5q57 0 111 20.5t95 60.5t67 98.5 t26 136.5t-25 137t-67 99t-95 60.5t-112 20.5q-57 0 -111.5 -20.5t-96.5 -60.5t-66.5 -99t-24.5 -137z" />
<glyph unicode="&#x432;" horiz-adv-x="880" d="M139 0v850h322q35 0 84 -7t94 -42q23 -18 48.5 -56t25.5 -104q0 -63 -27 -104t-65 -66q18 -4 46.5 -16.5t59.5 -40.5q68 -66 68 -164q0 -68 -27 -116t-61 -77q-39 -29 -94.5 -43t-106.5 -14h-367zM287 131h182q31 0 67.5 4t65.5 25q20 16 34.5 40.5t14.5 53.5 q0 63 -43 96q-29 23 -65.5 27t-67.5 4h-188v-250zM287 504h155q10 0 40 4t55 20q12 10 26.5 30t14.5 58q0 31 -12.5 50.5t-28.5 31.5q-27 16 -55.5 18.5t-63.5 2.5h-131v-215z" />
<glyph unicode="&#x433;" horiz-adv-x="651" d="M139 0v850h504v-135h-356v-715h-148z" />
<glyph unicode="&#x434;" horiz-adv-x="942" d="M8 135q55 2 95 34t63 77t29 102.5t6 122.5v379h598v-715h127v-360h-135v225h-648v-225h-135v360zM246 135h405v580h-303v-320q0 -74 -21.5 -140.5t-80.5 -119.5z" />
<glyph unicode="&#x435;" horiz-adv-x="985" d="M86 420q0 96 28.5 178t82 142.5t129 95t172.5 34.5q125 0 203.5 -50t117.5 -105q41 -57 62.5 -145.5t17.5 -174.5h-661q0 -66 21.5 -119t58 -91t86 -58.5t104.5 -20.5q100 0 174 62q29 25 51.5 55.5t36.5 61.5l123 -68q-18 -35 -45 -71.5t-60 -65.5q-117 -104 -282 -105 q-76 0 -151.5 26t-135 79t-96.5 137t-37 203zM248 518h500q-18 100 -87 160.5t-163 60.5t-164 -62.5t-86 -158.5z" />
<glyph unicode="&#x436;" horiz-adv-x="1220" d="M8 0l406 457l-369 393h172l320 -348v348h147v-348l320 348h172l-369 -393l405 -457h-184l-315 358l-29 -28v-330h-147v330l-29 28l-315 -358h-185z" />
<glyph unicode="&#x437;" horiz-adv-x="864" d="M86 193l127 53q6 -16 23.5 -43t52.5 -53q35 -27 69.5 -35.5t69.5 -8.5q25 0 67 5.5t76 27.5q23 14 41.5 43t18.5 76q0 35 -14.5 59.5t-36.5 38.5q-33 23 -72 26t-68 3h-86v135h72q51 0 75.5 8.5t35.5 14.5q16 10 30.5 29.5t14.5 48.5q0 57 -37 88q-27 23 -57.5 26.5 t-51.5 3.5q-25 0 -54.5 -6t-62.5 -26q-16 -10 -34.5 -27.5t-34.5 -46.5l-103 84q23 31 50.5 59.5t58.5 46.5q49 29 97 38t89 9q51 0 102.5 -9t98.5 -50q41 -35 57.5 -76t16.5 -86q0 -76 -32 -116.5t-64 -61.5q33 -8 57 -23.5t41 -31.5q27 -29 43 -68t16 -88 q0 -66 -28.5 -123t-81.5 -96q-47 -35 -109.5 -50.5t-132.5 -15.5q-57 0 -115.5 15.5t-111.5 56.5q-37 29 -66 67t-47 79z" />
<glyph unicode="&#x438;" horiz-adv-x="1007" d="M139 -59v909h148v-561l581 626v-915h-147v567z" />
<glyph unicode="&#x439;" horiz-adv-x="1007" d="M139 -59v909h148v-561l581 626v-915h-147v567zM213 1217l123 47q16 -53 59 -88t115 -35t115 34.5t59 88.5l123 -47q-33 -92 -111 -145.5t-186 -53.5q-109 0 -186.5 53t-110.5 146z" />
<glyph unicode="&#x43a;" horiz-adv-x="864" d="M139 0v850h148v-348l344 348h180l-369 -379l414 -471h-192l-332 373l-45 -43v-330h-148z" />
<glyph unicode="&#x43b;" horiz-adv-x="921" d="M16 0v135q20 -4 33 -4q41 0 67.5 17.5t39.5 37.5q20 31 24 69t4 77v518h598v-850h-147v715h-303v-383q0 -53 -8.5 -120t-57.5 -126q-20 -25 -69.5 -57.5t-135.5 -32.5q-10 0 -22 1t-23 3z" />
<glyph unicode="&#x43c;" horiz-adv-x="1187" d="M41 0l205 915l352 -692l344 692l205 -915h-152l-112 526l-289 -585l-293 585l-108 -526h-152z" />
<glyph unicode="&#x43d;" horiz-adv-x="974" d="M139 0v850h148v-348h401v348h148v-850h-148v367h-401v-367h-148z" />
<glyph unicode="&#x43e;" horiz-adv-x="1073" d="M86 422q0 96 34 179t94 142.5t142 93t181 33.5q98 0 180 -33.5t142.5 -93t94 -142.5t33.5 -179t-33.5 -178t-94 -141.5t-143.5 -93.5t-179 -34t-179.5 34t-143.5 93.5t-94 141.5t-34 178zM238 422q0 -78 25.5 -137.5t67.5 -99.5t95 -59.5t111 -19.5q57 0 111 20.5 t95 60.5t67 98.5t26 136.5t-25 137t-67 99t-95 60.5t-112 20.5q-57 0 -111.5 -20.5t-96.5 -60.5t-66.5 -99t-24.5 -137z" />
<glyph unicode="&#x43f;" horiz-adv-x="962" d="M139 0v850h684v-850h-147v715h-389v-715h-148z" />
<glyph unicode="&#x440;" horiz-adv-x="1077" d="M139 -479v1329h148v-119q37 47 79 75t80.5 42t73.5 18t58 4q100 0 176.5 -37.5t129 -101t80 -144.5t27.5 -167q0 -88 -27.5 -168t-80 -141.5t-128 -98.5t-171.5 -37q-104 0 -177 41t-120 103v-598h-148zM279 422q0 -66 20 -123t57 -100t89 -68t118 -25t117 25t86 68 t54.5 100t19.5 121q0 78 -24.5 138t-63.5 100t-89.5 60.5t-101.5 20.5t-102 -20.5t-91 -61.5t-64.5 -99t-24.5 -136z" />
<glyph unicode="&#x441;" horiz-adv-x="897" d="M86 420q0 98 34 180t95 142.5t144 94t182 33.5q102 0 167.5 -29.5t96.5 -52.5v-176q-59 74 -134 100.5t-132 26.5q-59 0 -113.5 -20.5t-96.5 -60.5t-66.5 -99t-24.5 -137t25.5 -136.5t67.5 -98.5t95 -60.5t111 -20.5q66 0 140.5 31t133.5 103v-177q-70 -51 -140.5 -69.5 t-129.5 -18.5q-98 0 -182.5 34t-144.5 93.5t-94 140.5t-34 177z" />
<glyph unicode="&#x442;" horiz-adv-x="712" d="M16 715v135h680v-135h-266v-715h-147v715h-267z" />
<glyph unicode="&#x443;" horiz-adv-x="942" d="M16 850h168l301 -608l277 608h164l-629 -1329h-164l275 559z" />
<glyph unicode="&#x444;" horiz-adv-x="1331" d="M86 426q0 119 43 199t102 129q68 57 160 83.5t201 26.5v502h147v-502q109 0 201 -26.5t160 -83.5q59 -49 102 -129t43 -199q0 -209 -147 -330q-45 -37 -95.5 -58.5t-99.5 -33.5t-91 -15t-73 -3v-465h-147v465q-31 0 -73 3t-91 15t-99 33.5t-96 58.5q-147 121 -147 330z M238 426q0 -98 35.5 -156.5t82.5 -91.5q47 -35 111.5 -50t124.5 -11v616q-59 4 -121.5 -10t-105.5 -43q-41 -27 -84 -86t-43 -168zM739 117q59 -4 124 11t112 50q47 33 83 91.5t36 156.5q0 109 -43 168t-84 86q-43 29 -105.5 43t-122.5 10v-616z" />
<glyph unicode="&#x445;" horiz-adv-x="929" d="M16 0l363 455l-309 395h180l219 -289l223 289h180l-311 -397l352 -453h-180l-268 346l-268 -346h-181z" />
<glyph unicode="&#x446;" horiz-adv-x="970" d="M139 0v850h148v-715h381v715h147v-715h139v-360h-135v225h-680z" />
<glyph unicode="&#x447;" horiz-adv-x="880" d="M115 586v264h147v-244q0 -23 4 -52.5t15 -47.5q20 -39 57 -47t72 -8q41 0 89 4t95 14v381h147v-850h-147v334q-41 -6 -98.5 -12.5t-102.5 -6.5q-16 0 -40.5 1t-53.5 7.5t-58.5 18.5t-54.5 35q-43 39 -57 93t-14 116z" />
<glyph unicode="&#x448;" horiz-adv-x="1376" d="M139 0v850h148v-715h327v715h148v-715h328v715h147v-850h-1098z" />
<glyph unicode="&#x449;" horiz-adv-x="1392" d="M139 0v850h148v-715h327v715h148v-715h328v715h147v-715h139v-360h-135v225h-1102z" />
<glyph unicode="&#x44a;" horiz-adv-x="880" d="M16 715v135h332v-326h152q57 0 128.5 -12t129.5 -72q25 -25 45 -68.5t20 -109.5q0 -70 -23.5 -117t-51.5 -73q-55 -53 -121 -62.5t-129 -9.5h-297v715h-185zM348 131h137q37 0 71 3t60 20q14 10 35 34.5t21 73.5q0 29 -10.5 57.5t-43.5 49.5q-29 18 -62.5 21t-68.5 3 h-139v-262z" />
<glyph unicode="&#x44b;" horiz-adv-x="1150" d="M139 0v850h148v-326h151q57 0 129 -12t129 -72q25 -25 45.5 -68.5t20.5 -109.5q0 -70 -23.5 -117t-52.5 -73q-55 -53 -120.5 -62.5t-129.5 -9.5h-297zM287 131h137q37 0 70.5 3t60.5 20q14 10 34.5 34.5t20.5 73.5q0 29 -10 57.5t-43 49.5q-29 18 -62.5 21t-68.5 3h-139 v-262zM864 0v850h148v-850h-148z" />
<glyph unicode="&#x44c;" horiz-adv-x="819" d="M139 0v850h148v-326h151q57 0 129 -12t129 -72q25 -25 45.5 -68.5t20.5 -109.5q0 -70 -23.5 -117t-52.5 -73q-55 -53 -120.5 -62.5t-129.5 -9.5h-297zM287 131h137q37 0 70.5 3t60.5 20q14 10 34.5 34.5t20.5 73.5q0 29 -10 57.5t-43 49.5q-29 18 -62.5 21t-68.5 3h-139 v-262z" />
<glyph unicode="&#x44d;" horiz-adv-x="866" d="M86 23v143q59 -31 122.5 -45.5t117.5 -14.5q57 0 109 18.5t93 52.5t68 83t33 109h-449v131h449q-25 117 -110 178t-195 61q-53 0 -116 -13t-122 -42v143q66 27 123 35t108 8q111 0 197 -33.5t145.5 -93t90 -142.5t30.5 -181q0 -96 -32.5 -177t-92 -140.5t-142.5 -93.5 t-185 -34q-96 0 -155.5 18.5t-86.5 29.5z" />
<glyph unicode="&#x44e;" horiz-adv-x="1413" d="M139 0v850h148v-348h153q10 78 42 139t73 102q55 59 137 93t185 34q98 0 181 -33.5t142.5 -93t93 -142.5t33.5 -179t-33.5 -178t-94 -141.5t-142.5 -93.5t-180 -34q-133 0 -218.5 50.5t-132.5 109.5q-31 39 -58.5 96.5t-35.5 135.5h-145v-367h-148zM584 422 q0 -78 24.5 -137.5t65.5 -99.5t94 -59.5t109 -19.5q57 0 111 20.5t95 60.5t67 98.5t26 136.5t-25 137t-67 99t-95 60.5t-112 20.5t-112.5 -21.5t-93.5 -61.5t-63.5 -99t-23.5 -135z" />
<glyph unicode="&#x44f;" horiz-adv-x="835" d="M41 0l264 350q-4 0 -21.5 2t-41 9.5t-51 20.5t-50.5 36q-27 25 -47 67.5t-20 102.5q0 59 20.5 108t55.5 82q55 53 120.5 62.5t128.5 9.5h297v-850h-147v342h-90l-242 -342h-176zM225 592q0 -70 54 -103q33 -20 68.5 -22t62.5 -2h139v254h-137q-45 0 -78 -4t-55 -19 q-18 -12 -36 -37.5t-18 -66.5z" />
<glyph unicode="&#x451;" horiz-adv-x="987" d="M86 420q0 96 28.5 178t82 142.5t130 95t173.5 34.5q125 0 203.5 -50t117.5 -105q41 -57 62.5 -145.5t17.5 -174.5h-663q0 -66 22.5 -119t59 -91t86 -58.5t104.5 -20.5q104 0 174 62q29 25 51.5 55.5t36.5 61.5l123 -68q-18 -35 -45 -71.5t-59 -65.5q-68 -61 -143 -83 t-140 -22q-76 0 -151.5 26t-136 79t-97.5 137t-37 203zM225 1126q0 41 31 72t72 31t71.5 -31t30.5 -72t-30.5 -71.5t-71.5 -30.5t-72 30.5t-31 71.5zM250 518h500q-18 100 -87 160.5t-163 60.5t-164 -62.5t-86 -158.5zM582 1126q0 41 30.5 72t71.5 31t71.5 -31t30.5 -72 t-30.5 -71.5t-71.5 -30.5t-71.5 30.5t-30.5 71.5z" />
<glyph unicode="&#x452;" horiz-adv-x="962" d="M0 1135v122h139v236h148v-236h409v-122h-409v-383q10 12 29.5 32.5t49 40t70.5 32.5t94 13q76 0 140.5 -29.5t103.5 -86.5q33 -47 41 -101.5t8 -126.5v-710q0 -59 -12 -126t-70 -114q-66 -55 -170 -55q-41 0 -66.5 7t-37.5 11v144q47 -18 96 -19q25 0 51.5 8.5t42.5 36.5 q14 23 16.5 55.5t2.5 67.5v690q0 39 -6 80t-33 76q-23 29 -56.5 45t-82.5 16q-39 0 -78 -13t-72 -52q-43 -51 -52 -116.5t-9 -113.5v-444h-148v1135h-139z" />
<glyph unicode="&#x453;" horiz-adv-x="651" d="M139 0v850h504v-135h-356v-715h-148zM301 1067l215 297l152 -70l-275 -276z" />
<glyph unicode="&#x454;" horiz-adv-x="897" d="M86 420q0 98 34 180t95 142.5t144 94t182 33.5q102 0 167.5 -29.5t96.5 -52.5v-176q-59 70 -131 98.5t-135 28.5q-49 0 -98.5 -15t-89.5 -46t-68.5 -76t-38.5 -102h444v-131h-446q6 -59 32.5 -108.5t66.5 -83.5t90 -52.5t106 -18.5q66 0 140.5 31t133.5 103v-177 q-70 -51 -140.5 -69.5t-129.5 -18.5q-98 0 -182.5 34t-144.5 93.5t-94 140.5t-34 177z" />
<glyph unicode="&#x455;" horiz-adv-x="720" d="M74 193l127 53q6 -16 18 -41t33.5 -46.5t51.5 -37t69 -15.5q72 0 105.5 44.5t33.5 91.5q0 59 -39 86.5t-98 54.5q-78 35 -128 62.5t-79 62.5q-25 31 -32 61.5t-7 63.5q0 113 69.5 175t178.5 62q16 0 46 -3t62.5 -18t66.5 -46t58 -86l-121 -64q-16 37 -46.5 61.5 t-71.5 24.5t-72 -23.5t-31 -72.5q0 -47 33 -68.5t105 -52.5q92 -39 140 -69.5t72 -61.5q29 -35 37.5 -68.5t8.5 -68.5q0 -68 -23 -119t-62.5 -87t-93 -54.5t-114.5 -18.5q-12 0 -50 4.5t-84.5 25t-91.5 64.5t-71 124z" />
<glyph unicode="&#x456;" horiz-adv-x="425" d="M109 1171q0 43 30.5 74t73.5 31t73.5 -31t30.5 -74t-30.5 -73.5t-73.5 -30.5t-73.5 30.5t-30.5 73.5zM139 0v850h148v-850h-148z" />
<glyph unicode="&#x457;" horiz-adv-x="425" d="M-25 1126q0 41 31 72t72 31t71.5 -31t30.5 -72t-30.5 -71.5t-71.5 -30.5t-72 30.5t-31 71.5zM139 0v850h148v-850h-148zM246 1126q0 41 30.5 72t71.5 31t72 -31t31 -72t-31 -71.5t-72 -30.5t-71.5 30.5t-30.5 71.5z" />
<glyph unicode="&#x458;" horiz-adv-x="425" d="M109 1171q0 43 30.5 74t73.5 31t73.5 -31t30.5 -74t-30.5 -73.5t-73.5 -30.5t-73.5 30.5t-30.5 73.5zM139 -479v1329h148v-1329h-148z" />
<glyph unicode="&#x459;" horiz-adv-x="1314" d="M16 0v135q20 -4 33 -4q41 0 67.5 17.5t39.5 37.5q20 31 24 69t4 77v518h598v-326h152q57 0 129 -12t129 -72q25 -25 45 -68.5t20 -109.5q0 -70 -23.5 -117t-51.5 -73q-55 -53 -121 -62.5t-129 -9.5h-297v715h-303v-383q0 -53 -8.5 -120t-57.5 -126q-20 -25 -69.5 -57.5 t-135.5 -32.5q-10 0 -22 1t-23 3zM782 131h138q37 0 70.5 3t60.5 20q14 10 34.5 34.5t20.5 73.5q0 29 -10.5 57.5t-42.5 49.5q-29 18 -63 21t-68 3h-140v-262z" />
<glyph unicode="&#x45a;" horiz-adv-x="1368" d="M139 0v850h148v-322h401v322h148v-326h151q57 0 129 -12t129 -72q25 -25 45.5 -68.5t20.5 -109.5q0 -70 -23.5 -117t-52.5 -73q-55 -53 -120.5 -62.5t-129.5 -9.5h-297v393h-401v-393h-148zM836 131h137q37 0 70.5 3t60.5 20q14 10 34.5 34.5t20.5 73.5q0 29 -10 57.5 t-43 49.5q-29 18 -62.5 21t-68.5 3h-139v-262z" />
<glyph unicode="&#x45b;" horiz-adv-x="962" d="M0 1135v122h139v236h148v-236h409v-122h-409v-383q10 12 29.5 32.5t49 40t70.5 32.5t94 13q76 0 140.5 -29.5t103.5 -86.5q33 -47 41 -101.5t8 -126.5v-526h-147v522q0 39 -6 80t-33 76q-23 29 -56.5 45t-82.5 16q-39 0 -78 -13t-72 -52q-43 -51 -52 -116.5t-9 -113.5 v-444h-148v1135h-139z" />
<glyph unicode="&#x45c;" horiz-adv-x="864" d="M139 0v850h148v-348l344 348h180l-369 -379l414 -471h-192l-332 373l-45 -43v-330h-148zM344 1067l215 297l152 -70l-275 -276z" />
<glyph unicode="&#x45e;" horiz-adv-x="942" d="M16 850h168l301 -608l277 608h164l-629 -1329h-164l275 559zM195 1217l122 47q16 -53 59.5 -88t115.5 -35t114.5 34.5t59.5 88.5l122 -47q-33 -92 -110.5 -145.5t-185.5 -53.5q-109 0 -187 53t-110 146z" />
<glyph unicode="&#x45f;" horiz-adv-x="954" d="M139 0v850h148v-715h381v715h147v-850h-270v-287h-135v287h-271z" />
<glyph unicode="&#x490;" horiz-adv-x="827" d="M176 0v1366h479v287h144v-430h-471v-1223h-152z" />
<glyph unicode="&#x491;" horiz-adv-x="671" d="M139 0v850h369v225h135v-360h-356v-715h-148z" />
<glyph unicode="&#x2000;" horiz-adv-x="903" />
<glyph unicode="&#x2001;" horiz-adv-x="1806" />
<glyph unicode="&#x2002;" horiz-adv-x="903" />
<glyph unicode="&#x2003;" horiz-adv-x="1806" />
<glyph unicode="&#x2004;" horiz-adv-x="602" />
<glyph unicode="&#x2005;" horiz-adv-x="451" />
<glyph unicode="&#x2006;" horiz-adv-x="301" />
<glyph unicode="&#x2007;" horiz-adv-x="301" />
<glyph unicode="&#x2008;" horiz-adv-x="225" />
<glyph unicode="&#x2009;" horiz-adv-x="361" />
<glyph unicode="&#x200a;" horiz-adv-x="100" />
<glyph unicode="&#x2010;" horiz-adv-x="614" d="M82 360v152h450v-152h-450z" />
<glyph unicode="&#x2011;" horiz-adv-x="614" d="M82 360v152h450v-152h-450z" />
<glyph unicode="&#x2012;" horiz-adv-x="614" d="M82 360v152h450v-152h-450z" />
<glyph unicode="&#x2013;" horiz-adv-x="1105" d="M102 371v131h902v-131h-902z" />
<glyph unicode="&#x2014;" horiz-adv-x="1556" d="M102 371v131h1352v-131h-1352z" />
<glyph unicode="&#x2018;" horiz-adv-x="540" d="M119 971l207 463l96 -39l-170 -473z" />
<glyph unicode="&#x2019;" horiz-adv-x="630" d="M119 961l166 473l137 -50l-207 -462z" />
<glyph unicode="&#x201c;" horiz-adv-x="839" d="M119 971l207 463l96 -39l-170 -473zM418 971l207 463l96 -39l-166 -473z" />
<glyph unicode="&#x201d;" horiz-adv-x="929" d="M119 961l166 473l137 -50l-207 -462zM418 961l170 473l133 -50l-207 -462z" />
<glyph unicode="&#x201e;" horiz-adv-x="929" d="M119 -272l166 473l137 -49l-207 -463zM418 -272l170 473l133 -49l-207 -463z" />
<glyph unicode="&#x2020;" d="M205 1018v139h303v336h147v-336h303v-139h-303v-1378h-147v1378h-303z" />
<glyph unicode="&#x2022;" horiz-adv-x="1368" d="M397 696q0 59 22.5 111.5t61.5 91.5t91.5 61.5t111.5 22.5t111.5 -22.5t91.5 -61.5t61.5 -91t22.5 -112q0 -59 -22.5 -111.5t-61.5 -91t-91.5 -61t-111.5 -22.5t-111.5 22.5t-91.5 61t-61.5 91t-22.5 111.5z" />
<glyph unicode="&#x2026;" horiz-adv-x="1527" d="M154 82q0 41 30.5 71.5t71.5 30.5t71.5 -30.5t30.5 -71.5t-30.5 -71.5t-71.5 -30.5t-71.5 30.5t-30.5 71.5zM662 82q0 41 30.5 71.5t71.5 30.5t71.5 -30.5t30.5 -71.5t-30.5 -71.5t-71.5 -30.5t-71.5 30.5t-30.5 71.5zM1169 82q0 41 31 71.5t72 30.5t71.5 -30.5 t30.5 -71.5t-30.5 -71.5t-71.5 -30.5t-72 30.5t-31 71.5z" />
<glyph unicode="&#x202f;" horiz-adv-x="361" />
<glyph unicode="&#x205f;" horiz-adv-x="451" />
<glyph unicode="&#x2116;" horiz-adv-x="2088" d="M176 0v1423l954 -1083v1026h152v-1427l-954 1083v-1022h-152zM1434 1069q0 61 23.5 115.5t63.5 94.5t94.5 63.5t115.5 23.5t115.5 -23.5t94 -63.5t63.5 -94.5t24 -115.5t-24 -115.5t-63.5 -94.5t-94 -63.5t-115.5 -23.5t-115.5 23.5t-94.5 63.5t-63.5 94.5t-23.5 115.5z M1475 465v143h512v-143h-512zM1556 1069q0 -78 51.5 -131t123.5 -53q76 0 125 54t49 130t-49.5 130t-124.5 54q-72 0 -123.5 -53t-51.5 -131z" />
<glyph unicode="&#x2122;" horiz-adv-x="1478" d="M8 1272v94h471v-94h-184v-684h-102v684h-185zM553 588l133 827l293 -645l301 645l125 -827h-94l-72 526l-260 -565l-256 565l-76 -526h-94z" />
<glyph unicode="&#x2206;" horiz-adv-x="1368" d="M57 0l549 1366h156l549 -1366h-1254zM274 143h820l-410 1033z" />
<glyph unicode="&#x221a;" horiz-adv-x="1368" d="M0 614v136h289l143 -549h4l402 1493h530v-135h-407l-441 -1559h-182l-168 614h-170z" />
<glyph unicode="&#x221e;" horiz-adv-x="1368" d="M39 698q0 68 22.5 125.5t64.5 98.5t99.5 64.5t124.5 23.5q57 0 107.5 -18.5t92.5 -49.5t74.5 -69.5t57.5 -77.5q20 35 52 71.5t75 69.5t96 53.5t117 20.5q68 0 124 -23.5t97 -64.5t63.5 -99.5t22.5 -128.5q0 -68 -22.5 -125t-63.5 -99t-97 -64.5t-124 -22.5 q-63 0 -115.5 20.5t-94.5 52t-73 69.5t-51 73q-20 -35 -53 -73t-76 -69.5t-95 -52t-114 -20.5q-68 0 -125 23.5t-99 65.5t-64.5 99.5t-22.5 126.5zM190 694q0 -45 16.5 -79.5t42 -56t56.5 -33t62 -11.5q43 0 81.5 19.5t69.5 47t54.5 59.5t37.5 56q-18 35 -43.5 68 t-57.5 58.5t-69 41t-75 15.5q-80 0 -127.5 -54.5t-47.5 -130.5zM758 696q41 -74 107.5 -128t138.5 -54q70 0 122 48t52 134q0 74 -48.5 128.5t-128.5 54.5q-43 0 -79.5 -18.5t-68.5 -46.5t-55.5 -59.5t-39.5 -58.5z" />
<glyph unicode="&#x2248;" horiz-adv-x="1024" d="M20 418q18 41 47 87t52 73q37 41 81 59t97 18q57 0 111.5 -19.5t119.5 -49.5q47 -23 97.5 -44.5t97.5 -21.5q76 0 125 49q20 18 37.5 43t27.5 47l91 -53q-16 -39 -43 -79t-60 -70q-37 -37 -85 -58.5t-111 -21.5q-59 0 -113.5 22.5t-108.5 46.5q-70 33 -111.5 49.5 t-82.5 16.5q-59 0 -107 -41q-23 -18 -41 -48t-30 -58zM20 758q18 41 47 87t52 73q37 41 81 59t97 18q57 0 111.5 -19.5t119.5 -49.5q47 -23 97.5 -44.5t97.5 -21.5q76 0 125 49q20 18 37.5 43t27.5 47l91 -53q-16 -39 -43 -79t-60 -70q-37 -37 -85 -58.5t-111 -21.5 q-59 0 -113.5 22.5t-108.5 46.5q-70 33 -111.5 49.5t-82.5 16.5q-59 0 -107 -41q-23 -18 -41 -48t-30 -58z" />
<glyph unicode="&#x2260;" horiz-adv-x="1024" d="M68 471v135h340l88 180h-428v136h491l113 233h121l-111 -233h274v-136h-340l-86 -180h426v-135h-491l-111 -233h-123l113 233h-276z" />
<glyph unicode="&#x2264;" horiz-adv-x="1024" d="M68 113v135h888v-135h-888zM68 709v127l888 401v-139l-731 -326l731 -326v-139z" />
<glyph unicode="&#x2265;" horiz-adv-x="1024" d="M68 113v135h888v-135h-888zM68 307v139l731 326l-731 326v139l888 -401v-127z" />
<glyph unicode="&#x25fc;" horiz-adv-x="849" d="M0 0v850h850v-850h-850z" />
</font>
</defs>
</svg>
